<svg xmlns="http://www.w3.org/2000/svg" xmlns:xlink="http://www.w3.org/1999/xlink" fill="none" version="1.1" width="22" height="22" viewBox="0 0 22 22"><defs><clipPath id="master_svg0_1145_79444"><rect x="0" y="0" width="22" height="22" rx="0"/></clipPath></defs><g clip-path="url(#master_svg0_1145_79444)"><g><path d="M13.40625,7.90625C13.40625,7.90625,13.40625,6.875,13.40625,6.875C13.40625,6.875,12.37495,6.875,12.37495,6.875C12.01035,6.875,11.66059,7.01987,11.40272,7.27772C11.14487,7.53559,11,7.88532,11,8.25C11,8.25,11,13.74995,11,13.74995C11,14.11465,11.14487,14.46445,11.40272,14.72225C11.66059,14.98015,12.01035,15.12495,12.37495,15.12495C12.37495,15.12495,13.40625,15.12495,13.40625,15.12495C13.40625,15.12495,13.40625,14.09375,13.40625,14.09375C13.40625,13.72905,13.55115,13.37935,13.80895,13.12145C14.06685,12.86362,14.41655,12.71875,14.78125,12.71875C14.78125,12.71875,18.21875,12.71875,18.21875,12.71875C18.58335,12.71875,18.93325,12.86362,19.19105,13.12145C19.44885,13.37935,19.59375,13.72905,19.59375,14.09375C19.59375,14.09375,19.59375,17.53125,19.59375,17.53125C19.59375,17.89585,19.44885,18.245649999999998,19.19105,18.50355C18.93325,18.76135,18.58335,18.90625,18.21875,18.90625C18.21875,18.90625,14.78125,18.90625,14.78125,18.90625C14.41655,18.90625,14.06685,18.76135,13.80895,18.50355C13.55115,18.245649999999998,13.40625,17.89585,13.40625,17.53125C13.40625,17.53125,13.40625,16.49995,13.40625,16.49995C13.40625,16.49995,12.37495,16.49995,12.37495,16.49995C11.64635,16.49775,10.94819,16.207250000000002,10.43296,15.69205C9.91772,15.17685,9.62727,14.47865,9.625,13.74995C9.625,13.74995,9.625,11.6875,9.625,11.6875C9.625,11.6875,7.21875,11.6875,7.21875,11.6875C7.21875,11.6875,7.21875,12.375,7.21875,12.375C7.21875,12.73968,7.07388,13.08941,6.81603,13.34725C6.55816,13.60515,6.20843,13.74995,5.84375,13.74995C5.84375,13.74995,3.09375,13.74995,3.09375,13.74995C2.7290799999999997,13.74995,2.379341,13.60515,2.1214779999999998,13.34725C1.863616,13.08941,1.7187500000000002,12.73968,1.71875,12.375C1.71875,12.375,1.71875,9.625,1.71875,9.625C1.71875,9.26032,1.863616,8.91059,2.1214779999999998,8.65272C2.379341,8.394870000000001,2.7290799999999997,8.25,3.09375,8.25C3.09375,8.25,5.84375,8.25,5.84375,8.25C6.20843,8.25,6.55816,8.394870000000001,6.81603,8.65272C7.07388,8.91059,7.21875,9.26032,7.21875,9.625C7.21875,9.625,7.21875,10.3125,7.21875,10.3125C7.21875,10.3125,9.625,10.3125,9.625,10.3125C9.625,10.3125,9.625,8.25,9.625,8.25C9.62727,7.52135,9.91772,6.82319,10.43296,6.30796C10.94819,5.79272,11.64635,5.50227,12.37495,5.5C12.37495,5.5,13.40625,5.5,13.40625,5.5C13.40625,5.5,13.40625,4.46875,13.40625,4.46875C13.40625,4.10408,13.55115,3.754341,13.80895,3.4964779999999998C14.06685,3.238616,14.41655,3.0937500000000004,14.78125,3.09375C14.78125,3.09375,18.21875,3.09375,18.21875,3.09375C18.58335,3.0937500000000004,18.93325,3.238616,19.19105,3.4964779999999998C19.44885,3.754341,19.59375,4.10408,19.59375,4.46875C19.59375,4.46875,19.59375,7.90625,19.59375,7.90625C19.59375,8.27093,19.44885,8.62066,19.19105,8.87853C18.93325,9.136379999999999,18.58335,9.28125,18.21875,9.28125C18.21875,9.28125,14.78125,9.28125,14.78125,9.28125C14.41655,9.28125,14.06685,9.136379999999999,13.80895,8.87853C13.55115,8.62066,13.40625,8.27093,13.40625,7.90625C13.40625,7.90625,13.40625,7.90625,13.40625,7.90625Z" fill="#707683" fill-opacity="1"/></g></g></svg>