<svg xmlns="http://www.w3.org/2000/svg"
  xmlns:xlink="http://www.w3.org/1999/xlink" fill="none" version="1.1" width="10.666648864746094" height="7.999982833862305" viewBox="0 0 10.666648864746094 7.999982833862305">
  <g>
    <path d="M1.13807,4.19526C0.877721,3.93491,0.455611,3.93491,0.195261,4.19526C-0.0650872,4.45561,-0.0650872,4.87772,0.195261,5.13807C0.195261,5.13807,1.13807,4.19526,1.13807,4.19526ZM3.33333,7.33333C3.33333,7.33333,2.86193,7.80473,2.86193,7.80473C3.12228,8.06507,3.54439,8.06507,3.80474,7.80473C3.80474,7.80473,3.33333,7.33333,3.33333,7.33333ZM10.4714,1.13807C10.7317,0.877721,10.7317,0.455611,10.4714,0.195262C10.2111,-0.0650872,9.78893,-0.0650872,9.5286,0.195262C9.5286,0.195262,10.4714,1.13807,10.4714,1.13807ZM0.195261,5.13807C0.195261,5.13807,2.86193,7.80473,2.86193,7.80473C2.86193,7.80473,3.80474,6.86193,3.80474,6.86193C3.80474,6.86193,1.13807,4.19526,1.13807,4.19526C1.13807,4.19526,0.195261,5.13807,0.195261,5.13807ZM3.80474,7.80473C3.80474,7.80473,10.4714,1.13807,10.4714,1.13807C10.4714,1.13807,9.5286,0.195262,9.5286,0.195262C9.5286,0.195262,2.86193,6.86193,2.86193,6.86193C2.86193,6.86193,3.80474,7.80473,3.80474,7.80473Z" fill="#FFFFFF" fill-opacity="1"/>
  </g>
</svg>