<svg xmlns="http://www.w3.org/2000/svg" xmlns:xlink="http://www.w3.org/1999/xlink" fill="none" version="1.1" width="10" height="13" viewBox="0 0 10 13"><g><path d="M8.75,4.33333C8.75,4.33333,8.125,4.33333,8.125,4.33333C8.125,4.33333,8.125,3.09524,8.125,3.09524C8.125,1.38667,6.725,0,5,0C3.275,0,1.875,1.38667,1.875,3.09524C1.875,3.09524,1.875,4.33333,1.875,4.33333C1.875,4.33333,1.25,4.33333,1.25,4.33333C0.5625,4.33333,0,4.89048,0,5.57143C0,5.57143,0,11.7619,0,11.7619C0,12.4429,0.5625,13,1.25,13C1.25,13,8.75,13,8.75,13C9.4375,13,10,12.4429,10,11.7619C10,11.7619,10,5.57143,10,5.57143C10,4.89048,9.4375,4.33333,8.75,4.33333C8.75,4.33333,8.75,4.33333,8.75,4.33333ZM5,9.90476C4.3125,9.90476,3.75,9.34762,3.75,8.66667C3.75,7.98571,4.3125,7.42857,5,7.42857C5.6875,7.42857,6.25,7.98571,6.25,8.66667C6.25,9.34762,5.6875,9.90476,5,9.90476C5,9.90476,5,9.90476,5,9.90476ZM3.125,4.33333C3.125,4.33333,3.125,3.09524,3.125,3.09524C3.125,2.06762,3.9625,1.2381,5,1.2381C6.0375,1.2381,6.875,2.06762,6.875,3.09524C6.875,3.09524,6.875,4.33333,6.875,4.33333C6.875,4.33333,3.125,4.33333,3.125,4.33333C3.125,4.33333,3.125,4.33333,3.125,4.33333Z" fill="#FFFFFF" fill-opacity="1"/></g></svg>