<svg xmlns="http://www.w3.org/2000/svg" xmlns:xlink="http://www.w3.org/1999/xlink" fill="none" version="1.1" width="19" height="19" viewBox="0 0 19 19"><g><g><path d="M14.48785,4.5203627890625C14.17906,4.2116130890625,13.68031,4.2116130890625,13.37156,4.5203627890625C13.37156,4.5203627890625,9.500309999999999,8.3836937890625,9.500309999999999,8.3836937890625C9.500309999999999,8.3836937890625,5.62906,4.5124457890625,5.62906,4.5124457890625C5.32031,4.2036962890625,4.821563,4.2036962890625,4.512812,4.5124457890625C4.2040625,4.8211967890625,4.2040625,5.3199437890625,4.512812,5.6286937890625C4.512812,5.6286937890625,8.38406,9.499943789062499,8.38406,9.499943789062499C8.38406,9.499943789062499,4.512812,13.3711937890625,4.512812,13.3711937890625C4.2040625,13.6799437890625,4.2040625,14.1786937890625,4.512812,14.4874837890625C4.821563,14.7961837890625,5.32031,14.7961837890625,5.62906,14.4874837890625C5.62906,14.4874837890625,9.500309999999999,10.6161937890625,9.500309999999999,10.6161937890625C9.500309999999999,10.6161937890625,13.37156,14.4874837890625,13.37156,14.4874837890625C13.68031,14.7961837890625,14.17906,14.7961837890625,14.48785,14.4874837890625C14.79655,14.1786937890625,14.79655,13.6799437890625,14.48785,13.3711937890625C14.48785,13.3711937890625,10.61656,9.499943789062499,10.61656,9.499943789062499C10.61656,9.499943789062499,14.48785,5.6286937890625,14.48785,5.6286937890625C14.78865,5.3278637890625,14.78865,4.8211967890625,14.48785,4.5203627890625C14.48785,4.5203627890625,14.48785,4.5203627890625,14.48785,4.5203627890625C14.48785,4.5203627890625,14.48785,4.5203627890625,14.48785,4.5203627890625Z" fill="#707683" fill-opacity="1"/></g></g></svg>