<svg xmlns="http://www.w3.org/2000/svg" xmlns:xlink="http://www.w3.org/1999/xlink" fill="none" version="1.1" width="11" height="11" viewBox="0 0 11 11"><g><path d="M10.2143,6.28571C10.2143,6.28571,6.28571,6.28571,6.28571,6.28571C6.28571,6.28571,6.28571,10.2143,6.28571,10.2143C6.28571,10.6464,5.93214,11,5.5,11C5.06786,11,4.71429,10.6464,4.71429,10.2143C4.71429,10.2143,4.71429,6.28571,4.71429,6.28571C4.71429,6.28571,0.785714,6.28571,0.785714,6.28571C0.353571,6.28571,0,5.93214,0,5.5C0,5.06786,0.353571,4.71429,0.785714,4.71429C0.785714,4.71429,4.71429,4.71429,4.71429,4.71429C4.71429,4.71429,4.71429,0.785714,4.71429,0.785714C4.71429,0.353571,5.06786,0,5.5,0C5.93214,0,6.28571,0.353571,6.28571,0.785714C6.28571,0.785714,6.28571,4.71429,6.28571,4.71429C6.28571,4.71429,10.2143,4.71429,10.2143,4.71429C10.6464,4.71429,11,5.06786,11,5.5C11,5.93214,10.6464,6.28571,10.2143,6.28571C10.2143,6.28571,10.2143,6.28571,10.2143,6.28571Z" fill="#707683" fill-opacity="1"/></g></svg>