<svg xmlns="http://www.w3.org/2000/svg" xmlns:xlink="http://www.w3.org/1999/xlink" fill="none" version="1.1" width="9" height="11" viewBox="0 0 9 11"><g><path d="M0.642859,9.7778C0.642859,10.102,0.778315,10.4128,1.01944,10.642C1.26055,10.8712,1.58758,11,1.92857,11C1.92857,11,7.07141,11,7.07141,11C7.4124,11,7.73947,10.8712,7.98057,10.642C8.22166,10.4128,8.35714,10.102,8.35714,9.7778C8.35714,9.7778,8.35714,2.44444,8.35714,2.44444C8.35714,2.44444,0.642859,2.44444,0.642859,2.44444C0.642859,2.44444,0.642859,9.7778,0.642859,9.7778C0.642859,9.7778,0.642859,9.7778,0.642859,9.7778ZM2.22429,5.42665C2.22429,5.42665,3.13071,4.565,3.13071,4.565C3.13071,4.565,4.5,5.86055,4.5,5.86055C4.5,5.86055,5.86286,4.565,5.86286,4.565C5.86286,4.565,6.76927,5.42665,6.76927,5.42665C6.76927,5.42665,5.40641,6.7222,5.40641,6.7222C5.40641,6.7222,6.76927,8.0178,6.76927,8.0178C6.76927,8.0178,5.86286,8.87945,5.86286,8.87945C5.86286,8.87945,4.5,7.5839,4.5,7.5839C4.5,7.5839,3.13714,8.87945,3.13714,8.87945C3.13714,8.87945,2.23071,8.0178,2.23071,8.0178C2.23071,8.0178,3.59357,6.7222,3.59357,6.7222C3.59357,6.7222,2.22429,5.42665,2.22429,5.42665C2.22429,5.42665,2.22429,5.42665,2.22429,5.42665ZM6.75,0.61111C6.75,0.61111,6.10714,0,6.10714,0C6.10714,0,2.89286,0,2.89286,0C2.89286,0,2.25,0.61111,2.25,0.61111C2.25,0.61111,0,0.61111,0,0.61111C0,0.61111,0,1.83334,0,1.83334C0,1.83334,9,1.83334,9,1.83334C9,1.83334,9,0.61111,9,0.61111C9,0.61111,6.75,0.61111,6.75,0.61111C6.75,0.61111,6.75,0.61111,6.75,0.61111Z" fill="#707683" fill-opacity="1"/></g></svg>