<svg xmlns="http://www.w3.org/2000/svg" xmlns:xlink="http://www.w3.org/1999/xlink" fill="none" version="1.1" width="9.449999809265137" height="9.449999809265137" viewBox="0 0 9.449999809265137 9.449999809265137"><g><path d="M9.29646,2.12202C9.50117,1.9173,9.50117,1.57609,9.29646,1.38187C9.29646,1.38187,8.06814,0.153541,8.06814,0.153541C7.87392,-0.0511804,7.53268,-0.0511804,7.32798,0.153541C7.32798,0.153541,6.3621,1.11416,6.3621,1.11416C6.3621,1.11416,8.33058,3.08264,8.33058,3.08264C8.33058,3.08264,9.29646,2.12202,9.29646,2.12202C9.29646,2.12202,9.29646,2.12202,9.29646,2.12202ZM0,7.48152C0,7.48152,0,9.45,0,9.45C0,9.45,1.96848,9.45,1.96848,9.45C1.96848,9.45,7.77415,3.63906,7.77415,3.63906C7.77415,3.63906,5.80567,1.67058,5.80567,1.67058C5.80567,1.67058,0,7.48152,0,7.48152C0,7.48152,0,7.48152,0,7.48152Z" fill="#707683" fill-opacity="1"/></g></svg>