<svg xmlns="http://www.w3.org/2000/svg" xmlns:xlink="http://www.w3.org/1999/xlink" fill="none" version="1.1" width="15.000000810127275" height="15.000000810127261" viewBox="0 0 15.000000810127275 15.000000810127261"><defs><clipPath id="master_svg0_712_21109"><rect x="0" y="8.101272612748289e-7" width="15" height="15" rx="0"/></clipPath></defs><g transform="matrix(1,-5.400848479553133e-8,5.400848479553133e-8,1,-4.3753745873007036e-14,0)" clip-path="url(#master_svg0_712_21109)"><g><path d="M12.5,2.5000008101272613C12.5,2.5000008101272613,2.5,2.5000008101272613,2.5,2.5000008101272613C1.8125,2.5000008101272613,1.25,3.0625008101272613,1.25,3.7500008101272613C1.25,3.7500008101272613,1.25,11.250000810127261,1.25,11.250000810127261C1.25,11.937500810127261,1.8125,12.500000810127261,2.5,12.500000810127261C2.5,12.500000810127261,12.5,12.500000810127261,12.5,12.500000810127261C13.1875,12.500000810127261,13.75,11.937500810127261,13.75,11.250000810127261C13.75,11.250000810127261,13.75,3.7500008101272613,13.75,3.7500008101272613C13.75,3.0625008101272613,13.1875,2.5000008101272613,12.5,2.5000008101272613C12.5,2.5000008101272613,12.5,2.5000008101272613,12.5,2.5000008101272613ZM2.5,7.500000810127261C2.5,7.500000810127261,5,7.500000810127261,5,7.500000810127261C5,7.500000810127261,5,8.750000810127261,5,8.750000810127261C5,8.750000810127261,2.5,8.750000810127261,2.5,8.750000810127261C2.5,8.750000810127261,2.5,7.500000810127261,2.5,7.500000810127261C2.5,7.500000810127261,2.5,7.500000810127261,2.5,7.500000810127261ZM8.75,11.250000810127261C8.75,11.250000810127261,2.5,11.250000810127261,2.5,11.250000810127261C2.5,11.250000810127261,2.5,10.000000810127261,2.5,10.000000810127261C2.5,10.000000810127261,8.75,10.000000810127261,8.75,10.000000810127261C8.75,10.000000810127261,8.75,11.250000810127261,8.75,11.250000810127261C8.75,11.250000810127261,8.75,11.250000810127261,8.75,11.250000810127261ZM12.5,11.250000810127261C12.5,11.250000810127261,10,11.250000810127261,10,11.250000810127261C10,11.250000810127261,10,10.000000810127261,10,10.000000810127261C10,10.000000810127261,12.5,10.000000810127261,12.5,10.000000810127261C12.5,10.000000810127261,12.5,11.250000810127261,12.5,11.250000810127261C12.5,11.250000810127261,12.5,11.250000810127261,12.5,11.250000810127261ZM12.5,8.750000810127261C12.5,8.750000810127261,6.25,8.750000810127261,6.25,8.750000810127261C6.25,8.750000810127261,6.25,7.500000810127261,6.25,7.500000810127261C6.25,7.500000810127261,12.5,7.500000810127261,12.5,7.500000810127261C12.5,7.500000810127261,12.5,8.750000810127261,12.5,8.750000810127261C12.5,8.750000810127261,12.5,8.750000810127261,12.5,8.750000810127261Z" fill="#40699C" fill-opacity="1"/></g></g></svg>