<svg xmlns="http://www.w3.org/2000/svg" xmlns:xlink="http://www.w3.org/1999/xlink" fill="none" version="1.1" width="15" height="15" viewBox="0 0 15 15"><defs><clipPath id="master_svg0_712_21111"><rect x="0" y="0" width="15" height="15" rx="0"/></clipPath></defs><g clip-path="url(#master_svg0_712_21111)"><g><path d="M6.25,6.2625C6.25,6.2625,9.375,6.2625,9.375,6.2625C9.375,6.2625,9.375,13.125,9.375,13.125C9.375,13.125,6.25,13.125,6.25,13.125C6.25,13.125,6.25,6.2625,6.25,6.2625C6.25,6.2625,6.25,6.2625,6.25,6.2625ZM10.625,13.125C10.625,13.125,12.5,13.125,12.5,13.125C13.1875,13.125,13.75,12.5625,13.75,11.875C13.75,11.875,13.75,6.25,13.75,6.25C13.75,6.25,10.625,6.25,10.625,6.25C10.625,6.25,10.625,13.125,10.625,13.125C10.625,13.125,10.625,13.125,10.625,13.125ZM12.5,1.875C12.5,1.875,3.125,1.875,3.125,1.875C2.4375,1.875,1.875,2.4375,1.875,3.125C1.875,3.125,1.875,5,1.875,5C1.875,5,13.75,5,13.75,5C13.75,5,13.75,3.125,13.75,3.125C13.75,2.4375,13.1875,1.875,12.5,1.875C12.5,1.875,12.5,1.875,12.5,1.875ZM1.875,11.875C1.875,12.5625,2.4375,13.125,3.125,13.125C3.125,13.125,5,13.125,5,13.125C5,13.125,5,6.25,5,6.25C5,6.25,1.875,6.25,1.875,6.25C1.875,6.25,1.875,11.875,1.875,11.875C1.875,11.875,1.875,11.875,1.875,11.875Z" fill="#40699C" fill-opacity="1"/></g></g></svg>