<svg xmlns="http://www.w3.org/2000/svg" xmlns:xlink="http://www.w3.org/1999/xlink" fill="none" version="1.1" width="163" height="60" viewBox="0 0 163 60"><defs><filter id="master_svg0_809_13780" filterUnits="objectBoundingBox" color-interpolation-filters="sRGB" x="-20" y="-15" width="163" height="60"><feFlood flood-opacity="0" result="BackgroundImageFix"/><feColorMatrix in="SourceAlpha" type="matrix" values="0 0 0 0 0 0 0 0 0 0 0 0 0 0 0 0 0 0 127 0"/><feOffset dy="5" dx="0"/><feGaussianBlur stdDeviation="5"/><feColorMatrix type="matrix" values="0 0 0 0 0 0 0 0 0 0.7833333611488342 0 0 0 0 1 0 0 0 1 0"/><feBlend mode="normal" in2="BackgroundImageFix" result="effect1_dropShadow"/><feBlend mode="normal" in="SourceGraphic" in2="effect1_dropShadow" result="shape"/></filter></defs><g filter="url(#master_svg0_809_13780)"><path d="M33.68,17.36L36.260000000000005,17.36L36.260000000000005,32L33.019999999999996,32L33.019999999999996,23.32L29.72,28.04L27.98,28.04L24.64,23.28L24.64,32L21.44,32L21.44,17.36L24.08,17.36L28.9,24.42L33.68,17.36ZM44.94,23.08L48,17.36L51.68,17.36L46.56,26.439999999999998L46.56,32L43.14,32L43.14,26.46L37.8,17.36L41.78,17.36L44.94,23.08ZM53.26,17.36L63.06,17.36L63.06,20.34L56.68,20.34L56.68,23.54L62.4,23.54L62.4,26.5L56.68,26.5L56.68,32L53.26,32L53.26,17.36ZM64.96000000000001,17.36L68.38,17.36L68.38,28.96L74.8,28.96L74.8,32L64.96000000000001,32L64.96000000000001,17.36ZM76,24.66Q76,22.34,76.95,20.62Q77.9,18.9,79.53999999999999,17.990000000000002Q81.18,17.08,83.16,17.08Q85.14,17.08,86.77,17.990000000000002Q88.4,18.9,89.36,20.62Q90.32,22.34,90.32,24.66Q90.32,27,89.36,28.72Q88.4,30.439999999999998,86.77,31.35Q85.14,32.260000000000005,83.16,32.260000000000005Q81.16,32.260000000000005,79.53,31.35Q77.9,30.439999999999998,76.95,28.72Q76,27,76,24.66ZM79.62,24.66Q79.62,26,80.07,27.02Q80.52000000000001,28.04,81.32,28.59Q82.12,29.14,83.16,29.14Q84.2,29.14,85.01,28.59Q85.82,28.04,86.27,27.02Q86.72,26,86.72,24.66Q86.72,23.34,86.27,22.33Q85.82,21.32,85.01,20.77Q84.2,20.22,83.16,20.22Q82.12,20.22,81.32,20.77Q80.52000000000001,21.32,80.07,22.33Q79.62,23.34,79.62,24.66ZM102.78,17.36L105.58,26.36L108.16,17.36L111.44,17.36L106.82,32L104.2,32L101.36,23.259999999999998L98.6,32L96,32L91.2,17.36L94.72,17.36L97.46,26.36L100.1,17.36L102.78,17.36ZM127.08,19.48L129.95999999999998,19.48L129.95999999999998,23.32L133.8,23.32L133.8,26.2L129.95999999999998,26.2L129.95999999999998,30.04L127.08,30.04L127.08,26.2L123.24,26.2L123.24,23.32L127.08,23.32L127.08,19.48Z" fill="#FFFFFF" fill-opacity="1"/></g></svg>