<svg xmlns="http://www.w3.org/2000/svg" xmlns:xlink="http://www.w3.org/1999/xlink" fill="none" version="1.1" width="14.000000756118794" height="14.000000756118794" viewBox="0 0 14.000000756118794 14.000000756118794"><defs><clipPath id="master_svg0_712_21058"><rect x="0" y="7.56118794242866e-7" width="14" height="14" rx="0"/></clipPath></defs><g transform="matrix(1,-5.400848479553133e-8,5.400848479553133e-8,1,-4.083683040248131e-14,0)" clip-path="url(#master_svg0_712_21058)"><g><path d="M4.08333,5.833174662368794C4.08333,5.833174662368794,2.91667,5.833174662368794,2.91667,5.833174662368794C2.91667,5.833174662368794,2.91667,4.666504662368794,2.91667,4.666504662368794C2.91667,4.345674662368794,2.65417,4.083174662368794,2.33333,4.083174662368794C2.0125,4.083174662368794,1.75,4.345674662368794,1.75,4.666504662368794C1.75,4.666504662368794,1.75,5.833174662368794,1.75,5.833174662368794C1.75,5.833174662368794,0.583333,5.833174662368794,0.583333,5.833174662368794C0.2625,5.833174662368794,0,6.095674662368794,0,6.416504662368794C0,6.737334662368794,0.2625,6.999834662368794,0.583333,6.999834662368794C0.583333,6.999834662368794,1.75,6.999834662368794,1.75,6.999834662368794C1.75,6.999834662368794,1.75,8.166504662368794,1.75,8.166504662368794C1.75,8.487334662368795,2.0125,8.749834662368794,2.33333,8.749834662368794C2.65417,8.749834662368794,2.91667,8.487334662368795,2.91667,8.166504662368794C2.91667,8.166504662368794,2.91667,6.999834662368794,2.91667,6.999834662368794C2.91667,6.999834662368794,4.08333,6.999834662368794,4.08333,6.999834662368794C4.40417,6.999834662368794,4.66667,6.737334662368794,4.66667,6.416504662368794C4.66667,6.095674662368794,4.40417,5.833174662368794,4.08333,5.833174662368794C4.08333,5.833174662368794,4.08333,5.833174662368794,4.08333,5.833174662368794ZM10.5,6.416504662368794C11.4683,6.416504662368794,12.2442,5.634834662368794,12.2442,4.666504662368794C12.2442,3.6981716623687944,11.4683,2.9165046623687942,10.5,2.9165046623687942C10.3133,2.9165046623687942,10.1325,2.945671262368794,9.96917,2.9981713623687942C10.3017,3.4706716623687943,10.4942,4.042334662368795,10.4942,4.666504662368794C10.4942,5.290674662368794,10.2958,5.856504662368794,9.96917,6.334834662368794C10.1325,6.387334662368794,10.3133,6.416504662368794,10.5,6.416504662368794C10.5,6.416504662368794,10.5,6.416504662368794,10.5,6.416504662368794ZM7.58333,6.416504662368794C8.55167,6.416504662368794,9.3275,5.634834662368794,9.3275,4.666504662368794C9.3275,3.6981716623687944,8.55167,2.9165046623687942,7.58333,2.9165046623687942C6.615,2.9165046623687942,5.83333,3.6981716623687944,5.83333,4.666504662368794C5.83333,5.634834662368794,6.615,6.416504662368794,7.58333,6.416504662368794C7.58333,6.416504662368794,7.58333,6.416504662368794,7.58333,6.416504662368794ZM7.58333,7.583174662368794C6.41667,7.583174662368794,4.08333,8.166504662368794,4.08333,9.333174662368794C4.08333,9.333174662368794,4.08333,9.916504662368794,4.08333,9.916504662368794C4.08333,10.237334662368795,4.34583,10.499834662368794,4.66667,10.499834662368794C4.66667,10.499834662368794,10.5,10.499834662368794,10.5,10.499834662368794C10.8208,10.499834662368794,11.0833,10.237334662368795,11.0833,9.916504662368794C11.0833,9.916504662368794,11.0833,9.333174662368794,11.0833,9.333174662368794C11.0833,8.166504662368794,8.75,7.583174662368794,7.58333,7.583174662368794C7.58333,7.583174662368794,7.58333,7.583174662368794,7.58333,7.583174662368794ZM11.445,7.676504662368794C11.9292,8.102334662368794,12.25,8.644834662368794,12.25,9.333174662368794C12.25,9.333174662368794,12.25,10.208174662368794,12.25,10.208174662368794C12.25,10.307334662368795,12.2383,10.406504662368794,12.2208,10.499834662368794C12.2208,10.499834662368794,13.7083,10.499834662368794,13.7083,10.499834662368794C13.8717,10.499834662368794,14,10.371504662368794,14,10.208174662368794C14,10.208174662368794,14,9.333174662368794,14,9.333174662368794C14,8.434834662368793,12.6175,7.880674662368794,11.445,7.676504662368794C11.445,7.676504662368794,11.445,7.676504662368794,11.445,7.676504662368794Z" fill="#FFFFFF" fill-opacity="1"/></g></g></svg>