<svg xmlns="http://www.w3.org/2000/svg" xmlns:xlink="http://www.w3.org/1999/xlink" fill="none" version="1.1" width="13" height="13" viewBox="0 0 13 13"><defs><clipPath id="master_svg0_712_21055"><rect x="0" y="0" width="13" height="13" rx="0"/></clipPath></defs><g clip-path="url(#master_svg0_712_21055)"><g><path d="M9.7503221875,4.33317390625C9.7503221875,4.33317390625,9.2086621875,4.33317390625,9.2086621875,4.33317390625C9.2086621875,4.33317390625,9.2086621875,3.24983390625,9.2086621875,3.24983390625C9.2086621875,1.75483390625,7.9953221875,0.54150390625,6.5003221875,0.54150390625C5.0053221875,0.54150390625,3.7919921875,1.75483390625,3.7919921875,3.24983390625C3.7919921875,3.24983390625,3.7919921875,4.33317390625,3.7919921875,4.33317390625C3.7919921875,4.33317390625,3.2503221875,4.33317390625,3.2503221875,4.33317390625C2.6544921875,4.33317390625,2.1669921875,4.82067390625,2.1669921875,5.41650390625C2.1669921875,5.41650390625,2.1669921875,10.83320390625,2.1669921875,10.83320390625C2.1669921875,11.42900390625,2.6544921875,11.91650390625,3.2503221875,11.91650390625C3.2503221875,11.91650390625,9.7503221875,11.91650390625,9.7503221875,11.91650390625C10.3461621875,11.91650390625,10.8336621875,11.42900390625,10.8336621875,10.83320390625C10.8336621875,10.83320390625,10.8336621875,5.41650390625,10.8336621875,5.41650390625C10.8336621875,4.82067390625,10.3461621875,4.33317390625,9.7503221875,4.33317390625C9.7503221875,4.33317390625,9.7503221875,4.33317390625,9.7503221875,4.33317390625ZM6.5003221875,9.20817390625C5.9044921875,9.20817390625,5.4169921875,8.72067390625,5.4169921875,8.12483390625C5.4169921875,7.52900390625,5.9044921875,7.04150390625,6.5003221875,7.04150390625C7.0961621875,7.04150390625,7.5836621875,7.52900390625,7.5836621875,8.12483390625C7.5836621875,8.72067390625,7.0961621875,9.20817390625,6.5003221875,9.20817390625C6.5003221875,9.20817390625,6.5003221875,9.20817390625,6.5003221875,9.20817390625ZM4.8753221875,4.33317390625C4.8753221875,4.33317390625,4.8753221875,3.24983390625,4.8753221875,3.24983390625C4.8753221875,2.35067390625,5.6011621875,1.62483390625,6.5003221875,1.62483390625C7.3994921875,1.62483390625,8.1253221875,2.35067390625,8.1253221875,3.24983390625C8.1253221875,3.24983390625,8.1253221875,4.33317390625,8.1253221875,4.33317390625C8.1253221875,4.33317390625,4.8753221875,4.33317390625,4.8753221875,4.33317390625C4.8753221875,4.33317390625,4.8753221875,4.33317390625,4.8753221875,4.33317390625Z" fill="#FFFFFF" fill-opacity="1"/></g></g></svg>