<svg xmlns="http://www.w3.org/2000/svg" xmlns:xlink="http://www.w3.org/1999/xlink" fill="none" version="1.1" width="14" height="15" viewBox="0 0 14 15"><defs><clipPath id="master_svg0_712_21054"><rect x="0" y="0" width="14" height="15" rx="0"/></clipPath></defs><g clip-path="url(#master_svg0_712_21054)"><g><path d="M11.6669921875,2.5C11.6669921875,2.5,2.3336621875,2.5,2.3336621875,2.5C1.6861591875,2.5,1.1728255175,3.05625,1.1728255175,3.75C1.1728255175,3.75,1.1669921875,11.25,1.1669921875,11.25C1.1669921875,11.94375,1.6861591875,12.5,2.3336621875,12.5C2.3336621875,12.5,11.6669921875,12.5,11.6669921875,12.5C12.3144921875,12.5,12.8336921875,11.94375,12.8336921875,11.25C12.8336921875,11.25,12.8336921875,3.75,12.8336921875,3.75C12.8336921875,3.05625,12.3144921875,2.5,11.6669921875,2.5C11.6669921875,2.5,11.6669921875,2.5,11.6669921875,2.5ZM11.0836621875,11.25C11.0836621875,11.25,2.9169921875,11.25,2.9169921875,11.25C2.5961621875,11.25,2.3336621875,10.96875,2.3336621875,10.625C2.3336621875,10.625,2.3336621875,7.5,2.3336621875,7.5C2.3336621875,7.5,11.6669921875,7.5,11.6669921875,7.5C11.6669921875,7.5,11.6669921875,10.625,11.6669921875,10.625C11.6669921875,10.96875,11.4044921875,11.25,11.0836621875,11.25C11.0836621875,11.25,11.0836621875,11.25,11.0836621875,11.25ZM11.6669921875,5C11.6669921875,5,2.3336621875,5,2.3336621875,5C2.3336621875,5,2.3336621875,3.75,2.3336621875,3.75C2.3336621875,3.75,11.6669921875,3.75,11.6669921875,3.75C11.6669921875,3.75,11.6669921875,5,11.6669921875,5C11.6669921875,5,11.6669921875,5,11.6669921875,5Z" fill="#FFFFFF" fill-opacity="1"/></g></g></svg>