<svg xmlns="http://www.w3.org/2000/svg" xmlns:xlink="http://www.w3.org/1999/xlink" fill="none" version="1.1" width="15" height="15" viewBox="0 0 15 15"><defs><clipPath id="master_svg0_712_21056"><rect x="0" y="0" width="15" height="15" rx="0"/></clipPath></defs><g clip-path="url(#master_svg0_712_21056)"><g><path d="M13.125,1.875C13.125,1.875,9.2625,1.875,9.2625,1.875C9,1.15,8.3125,0.625,7.5,0.625C6.6875,0.625,6,1.15,5.7375,1.875C5.7375,1.875,1.875,1.875,1.875,1.875C1.875,1.875,1.875,13.125,1.875,13.125C1.875,13.125,13.125,13.125,13.125,13.125C13.125,13.125,13.125,1.875,13.125,1.875C13.125,1.875,13.125,1.875,13.125,1.875ZM7.5,1.875C7.84375,1.875,8.125,2.15625,8.125,2.5C8.125,2.84375,7.84375,3.125,7.5,3.125C7.15625,3.125,6.875,2.84375,6.875,2.5C6.875,2.15625,7.15625,1.875,7.5,1.875C7.5,1.875,7.5,1.875,7.5,1.875ZM6.25,10.625C6.25,10.625,3.75,8.125,3.75,8.125C3.75,8.125,4.63125,7.24375,4.63125,7.24375C4.63125,7.24375,6.25,8.85625,6.25,8.85625C6.25,8.85625,10.36875,4.7375,10.36875,4.7375C10.36875,4.7375,11.25,5.625,11.25,5.625C11.25,5.625,6.25,10.625,6.25,10.625C6.25,10.625,6.25,10.625,6.25,10.625Z" fill="#FFFFFF" fill-opacity="1"/></g></g></svg>