<svg xmlns="http://www.w3.org/2000/svg" xmlns:xlink="http://www.w3.org/1999/xlink" fill="none" version="1.1" width="14" height="14" viewBox="0 0 14 14"><defs><clipPath id="master_svg0_712_21057"><rect x="0" y="0" width="14" height="14" rx="0"/></clipPath></defs><g clip-path="url(#master_svg0_712_21057)"><g><path d="M11.08333,1.16650390625C11.08333,1.16650390625,2.91667,1.16650390625,2.91667,1.16650390625C2.275,1.16650390625,1.75,1.69150390625,1.75,2.33317390625C1.75,2.33317390625,1.75,10.49983390625,1.75,10.49983390625C1.75,11.14150390625,2.275,11.66650390625,2.91667,11.66650390625C2.91667,11.66650390625,5.25,11.66650390625,5.25,11.66650390625C5.25,11.66650390625,6.58583,13.00230390625,6.58583,13.00230390625C6.81333,13.22980390625,7.18083,13.22980390625,7.40833,13.00230390625C7.40833,13.00230390625,8.75,11.66650390625,8.75,11.66650390625C8.75,11.66650390625,11.08333,11.66650390625,11.08333,11.66650390625C11.725,11.66650390625,12.25,11.14150390625,12.25,10.49983390625C12.25,10.49983390625,12.25,2.33317390625,12.25,2.33317390625C12.25,1.69150390625,11.725,1.16650390625,11.08333,1.16650390625C11.08333,1.16650390625,11.08333,1.16650390625,11.08333,1.16650390625ZM8.09667,7.51317390625C8.09667,7.51317390625,7,9.91650390625,7,9.91650390625C7,9.91650390625,5.90333,7.51317390625,5.90333,7.51317390625C5.90333,7.51317390625,3.5,6.41650390625,3.5,6.41650390625C3.5,6.41650390625,5.90333,5.31983390625,5.90333,5.31983390625C5.90333,5.31983390625,7,2.91650390625,7,2.91650390625C7,2.91650390625,8.09667,5.31983390625,8.09667,5.31983390625C8.09667,5.31983390625,10.5,6.41650390625,10.5,6.41650390625C10.5,6.41650390625,8.09667,7.51317390625,8.09667,7.51317390625C8.09667,7.51317390625,8.09667,7.51317390625,8.09667,7.51317390625Z" fill="#FFFFFF" fill-opacity="1"/></g></g></svg>