<svg xmlns="http://www.w3.org/2000/svg" xmlns:xlink="http://www.w3.org/1999/xlink" fill="none" version="1.1" width="11.159263610839844" height="10" viewBox="0 0 11.159263610839844 10"><g><path d="M10.6943,2.5C10.6943,2.5,7.90448,2.5,7.90448,2.5C7.64875,2.5,7.43951,2.78125,7.43951,3.125C7.43951,3.125,7.43951,9.375,7.43951,9.375C7.43951,9.71875,7.64875,10,7.90448,10C7.90448,10,10.6943,10,10.6943,10C10.95,10,11.1593,9.71875,11.1593,9.375C11.1593,9.375,11.1593,3.125,11.1593,3.125C11.1593,2.78125,10.95,2.5,10.6943,2.5C10.6943,2.5,10.6943,2.5,10.6943,2.5ZM10.2293,8.125C10.2293,8.125,8.36945,8.125,8.36945,8.125C8.36945,8.125,8.36945,3.75,8.36945,3.75C8.36945,3.75,10.2293,3.75,10.2293,3.75C10.2293,3.75,10.2293,8.125,10.2293,8.125C10.2293,8.125,10.2293,8.125,10.2293,8.125ZM1.85988,1.25C1.85988,1.25,10.2293,1.25,10.2293,1.25C10.2293,1.25,10.2293,0,10.2293,0C10.2293,0,1.85988,0,1.85988,0C1.34841,0,0.929939,0.5625,0.929939,1.25C0.929939,1.25,0.929939,8.125,0.929939,8.125C0.929939,8.125,0,8.125,0,8.125C0,8.125,0,10,0,10C0,10,6.50957,10,6.50957,10C6.50957,10,6.50957,8.125,6.50957,8.125C6.50957,8.125,1.85988,8.125,1.85988,8.125C1.85988,8.125,1.85988,1.25,1.85988,1.25C1.85988,1.25,1.85988,1.25,1.85988,1.25Z" fill="#40699C" fill-opacity="1"/></g></svg>