<svg xmlns="http://www.w3.org/2000/svg" xmlns:xlink="http://www.w3.org/1999/xlink" fill="none" version="1.1" width="12.500000675106065" height="12.500000675106065" viewBox="0 0 12.500000675106065 12.500000675106065"><g transform="matrix(1,-5.400848479553133e-8,5.400848479553133e-8,1,-3.646145566167926e-14,0)"><path d="M6.25,6.751060652732122e-7C2.8125,6.751060652732122e-7,0,2.8125006751060653,0,6.250000675106065C0,9.687500675106065,2.8125,12.500000675106065,6.25,12.500000675106065C9.6875,12.500000675106065,12.5,9.687500675106065,12.5,6.250000675106065C12.5,2.8125006751060653,9.6875,6.751060652732122e-7,6.25,6.751060652732122e-7C6.25,6.751060652732122e-7,6.25,6.751060652732122e-7,6.25,6.751060652732122e-7ZM8.75,10.000000675106065C8.75,10.000000675106065,3.75,10.000000675106065,3.75,10.000000675106065C3.40625,10.000000675106065,3.125,9.718750675106065,3.125,9.375000675106065C3.125,9.031250675106065,3.40625,8.750000675106065,3.75,8.750000675106065C3.75,8.750000675106065,8.75,8.750000675106065,8.75,8.750000675106065C9.09375,8.750000675106065,9.375,9.031250675106065,9.375,9.375000675106065C9.375,9.718750675106065,9.09375,10.000000675106065,8.75,10.000000675106065C8.75,10.000000675106065,8.75,10.000000675106065,8.75,10.000000675106065ZM4.74375,7.056250675106066C4.74375,7.056250675106066,3.5625,5.875000675106065,3.5625,5.875000675106065C3.31875,5.631250675106065,3.31875,5.243750675106066,3.5625,5.000000675106065C3.80625,4.756250675106065,4.19375,4.756250675106065,4.4375,5.000000675106065C4.4375,5.000000675106065,5.1875,5.750000675106065,5.1875,5.750000675106065C5.1875,5.750000675106065,8.0625,2.8750006751060653,8.0625,2.8750006751060653C8.30625,2.6312506751060654,8.69375,2.6312506751060654,8.9375,2.8750006751060653C9.18125,3.118750675106065,9.18125,3.5062506751060654,8.9375,3.7500006751060653C8.9375,3.7500006751060653,5.63125,7.056250675106066,5.63125,7.056250675106066C5.3875,7.300000675106065,4.9875,7.300000675106065,4.74375,7.056250675106066C4.74375,7.056250675106066,4.74375,7.056250675106066,4.74375,7.056250675106066C4.74375,7.056250675106066,4.74375,7.056250675106066,4.74375,7.056250675106066Z" fill="#40699C" fill-opacity="1"/></g></svg>