<svg xmlns="http://www.w3.org/2000/svg" xmlns:xlink="http://www.w3.org/1999/xlink" fill="none" version="1.1" width="13" height="13" viewBox="0 0 13 13"><defs><clipPath id="master_svg0_712_21112"><rect x="0" y="0" width="13" height="13" rx="0"/></clipPath></defs><g clip-path="url(#master_svg0_712_21112)"><g><path d="M6.5484221875,1.576222265625C5.4596621875,0.487475265625,3.8292521875,0.265392265625,2.5184121875,0.904558265625C2.5184121875,0.904558265625,4.8692521875,3.255392265625,4.8692521875,3.255392265625C4.8692521875,3.255392265625,3.2442521875,4.880392265625,3.2442521875,4.880392265625C3.2442521875,4.880392265625,0.8934161875,2.529562265625,0.8934161875,2.529562265625C0.2596661875,3.845812265625,0.4817495875,5.465392265625,1.5705021875,6.554152265625C2.5780021875,7.561652265625,4.0513321875,7.827072265625,5.3025821875,7.355822265625C5.3025821875,7.355822265625,10.6217921875,12.674972265625,10.6217921875,12.674972265625C10.6217921875,12.674972265625,12.6313921875,10.665372265625,12.6313921875,10.665372265625C12.6313921875,10.665372265625,7.3338421875,5.362472265625,7.3338421875,5.362472265625C7.8321721875,4.094972265625,7.5721721875,2.599972265625,6.5484221875,1.576222265625C6.5484221875,1.576222265625,6.5484221875,1.576222265625,6.5484221875,1.576222265625C6.5484221875,1.576222265625,6.5484221875,1.576222265625,6.5484221875,1.576222265625Z" fill="#40699C" fill-opacity="1"/></g></g></svg>