<svg xmlns="http://www.w3.org/2000/svg" xmlns:xlink="http://www.w3.org/1999/xlink" fill="none" version="1.1" width="19" height="19" viewBox="0 0 19 19"><defs><clipPath id="master_svg0_1181_10296"><rect x="0" y="0" width="19" height="19" rx="0"/></clipPath></defs><g clip-path="url(#master_svg0_1181_10296)"><g><path d="M3.5394981249999997,16.62494453125C3.5394981249999997,16.62494453125,15.461978125,16.62494453125,15.461978125,16.62494453125C16.681178125000002,16.62494453125,17.441178125,15.30284453125,16.831578125,14.24994453125C16.831578125,14.24994453125,10.870358125,3.95033253125,10.870358125,3.95033253125C10.260768125,2.89741553125,8.740748125,2.89741553125,8.131158124999999,3.95033253125C8.131158124999999,3.95033253125,2.169914125,14.24994453125,2.169914125,14.24994453125C1.5603301250000001,15.30284453125,2.320330125,16.62494453125,3.5394981249999997,16.62494453125C3.5394981249999997,16.62494453125,3.5394981249999997,16.62494453125,3.5394981249999997,16.62494453125C3.5394981249999997,16.62494453125,3.5394981249999997,16.62494453125,3.5394981249999997,16.62494453125ZM9.500748125000001,11.08324453125C9.065328125,11.08324453125,8.709078125,10.72699453125,8.709078125,10.291584531249999C8.709078125,10.291584531249999,8.709078125,8.70824453125,8.709078125,8.70824453125C8.709078125,8.27283453125,9.065328125,7.91658453125,9.500748125000001,7.91658453125C9.936188125000001,7.91658453125,10.292438125,8.27283453125,10.292438125,8.70824453125C10.292438125,8.70824453125,10.292438125,10.291584531249999,10.292438125,10.291584531249999C10.292438125,10.72699453125,9.936188125000001,11.08324453125,9.500748125000001,11.08324453125C9.500748125000001,11.08324453125,9.500748125000001,11.08324453125,9.500748125000001,11.08324453125ZM10.292438125,14.24994453125C10.292438125,14.24994453125,8.709078125,14.24994453125,8.709078125,14.24994453125C8.709078125,14.24994453125,8.709078125,12.66658453125,8.709078125,12.66658453125C8.709078125,12.66658453125,10.292438125,12.66658453125,10.292438125,12.66658453125C10.292438125,12.66658453125,10.292438125,14.24994453125,10.292438125,14.24994453125C10.292438125,14.24994453125,10.292438125,14.24994453125,10.292438125,14.24994453125Z" fill="#FF0000" fill-opacity="1"/></g></g></svg>