<svg xmlns="http://www.w3.org/2000/svg"
  xmlns:xlink="http://www.w3.org/1999/xlink" fill="none" version="1.1" width="12.589834213256836" height="12.59432601928711" viewBox="0 0 12.589834213256836 12.59432601928711">
  <g>
    <path d="M12.5898,6.29716C12.5898,7.96728,11.9266,9.56896,10.7461,10.7499C9.56555,11.9309,7.96443,12.5943,6.29492,12.5943C4.6254,12.5943,3.02427,11.9309,1.84374,10.7499C0.663211,9.56896,9.17274e-16,7.96728,0,6.29716C3.05758e-16,4.62705,0.663211,3.02535,1.84374,1.8444C3.02427,0.663448,4.6254,1.57303e-15,6.29492,0C7.96443,1.09238e-15,9.56555,0.663448,10.7461,1.8444C11.9266,3.02535,12.5898,4.62705,12.5898,6.29716C12.5898,6.29716,12.5898,6.29716,12.5898,6.29716C12.5898,6.29716,12.5898,6.29716,12.5898,6.29716ZM6.68835,3.54215C6.68835,3.43777,6.64691,3.33766,6.5731,3.26386C6.49934,3.19005,6.39926,3.14858,6.29492,3.14858C6.19058,3.14858,6.09049,3.19005,6.01673,3.26386C5.94293,3.33766,5.90148,3.43777,5.90148,3.54215C5.90148,3.54215,5.90148,5.90359,5.90148,5.90359C5.90148,5.90359,3.54089,5.90359,3.54089,5.90359C3.43655,5.90359,3.33647,5.94505,3.26269,6.01888C3.18891,6.09266,3.14746,6.19279,3.14746,6.29716C3.14746,6.40154,3.18891,6.50166,3.26269,6.57545C3.33647,6.64928,3.43655,6.69074,3.54089,6.69074C3.54089,6.69074,5.90148,6.69074,5.90148,6.69074C5.90148,6.69074,5.90148,9.05217,5.90148,9.05217C5.90148,9.15655,5.94293,9.25667,6.01673,9.33045C6.09049,9.40429,6.19058,9.44574,6.29492,9.44574C6.39926,9.44574,6.49934,9.40429,6.5731,9.33045C6.64691,9.25667,6.68835,9.15655,6.68835,9.05217C6.68835,9.05217,6.68835,6.69074,6.68835,6.69074C6.68835,6.69074,9.04894,6.69074,9.04894,6.69074C9.15328,6.69074,9.25337,6.64928,9.32713,6.57545C9.40093,6.50166,9.44238,6.40154,9.44238,6.29716C9.44238,6.19279,9.40093,6.09266,9.32713,6.01888C9.25337,5.94505,9.15328,5.90359,9.04894,5.90359C9.04894,5.90359,6.68835,5.90359,6.68835,5.90359C6.68835,5.90359,6.68835,3.54215,6.68835,3.54215C6.68835,3.54215,6.68835,3.54215,6.68835,3.54215Z" fill="#707683" fill-opacity="1"/>
  </g>
</svg>