<svg xmlns="http://www.w3.org/2000/svg"
  xmlns:xlink="http://www.w3.org/1999/xlink" fill="none" version="1.1" width="8.249997239544513" height="4.499997800187941" viewBox="0 0 8.249997239544513 4.499997800187941">
  <g transform="matrix(1,-2.2348338291067193e-8,-2.2348338291067193e-8,1,4.12044653789254e-15,2.247515660527564e-15)">
    <path d="M0.10983510056746192,0.10983518437373228C0.2562811005674619,-0.036611515626267715,0.4937181005674619,-0.036611515626267715,0.6401651005674619,0.10983518437373228C0.6401651005674619,0.10983518437373228,4.125000100567462,3.594670184373732,4.125000100567462,3.594670184373732C4.125000100567462,3.594670184373732,7.609830100567462,0.10983518437373228,7.609830100567462,0.10983518437373228C7.756290100567462,-0.036611515626267715,7.993710100567462,-0.036611515626267715,8.140160100567462,0.10983518437373228C8.286610100567462,0.25628118437373226,8.286610100567462,0.49371818437373227,8.140160100567462,0.6401651843737323C8.140160100567462,0.6401651843737323,4.390170100567462,4.390170184373733,4.390170100567462,4.390170184373733C4.243710100567462,4.536610184373732,4.006290100567462,4.536610184373732,3.859830100567462,4.390170184373733C3.859830100567462,4.390170184373733,0.10983510056746192,0.6401651843737323,0.10983510056746192,0.6401651843737323C-0.03661159943253808,0.49371818437373227,-0.03661159943253808,0.25628118437373226,0.10983510056746192,0.10983518437373228C0.10983510056746192,0.10983518437373228,0.10983510056746192,0.10983518437373228,0.10983510056746192,0.10983518437373228Z" fill-rule="evenodd" fill="#000000" fill-opacity="1"/>
  </g>
</svg>