<svg xmlns="http://www.w3.org/2000/svg"
  xmlns:xlink="http://www.w3.org/1999/xlink" fill="none" version="1.1" width="4.499997615814209" height="8.24999713897705" viewBox="0 0 4.499997615814209 8.24999713897705">
  <g transform="matrix(0,1,1,0,0,0)">
    <path d="M0.109835,0.109835C0.256281,-0.0366117,0.493718,-0.0366117,0.640165,0.109835C0.640165,0.109835,4.125,3.59467,4.125,3.59467C4.125,3.59467,7.60983,0.109835,7.60983,0.109835C7.75629,-0.0366117,7.99371,-0.0366117,8.14016,0.109835C8.28661,0.256281,8.28661,0.493718,8.14016,0.640165C8.14016,0.640165,4.39017,4.39017,4.39017,4.39017C4.24371,4.53661,4.00629,4.53661,3.85983,4.39017C3.85983,4.39017,0.109835,0.640165,0.109835,0.640165C-0.0366117,0.493718,-0.0366117,0.256281,0.109835,0.109835C0.109835,0.109835,0.109835,0.109835,0.109835,0.109835Z" fill-rule="evenodd" fill="#000000" fill-opacity="1"/>
  </g>
</svg>