<svg xmlns="http://www.w3.org/2000/svg"
  xmlns:xlink="http://www.w3.org/1999/xlink" fill="none" version="1.1" width="17.875" height="15.8125" viewBox="0 0 17.875 15.8125">
  <g>
    <path d="M11.6875,4.8125C11.6875,4.8125,11.6875,3.78125,11.6875,3.78125C11.6875,3.78125,10.6562,3.78125,10.6562,3.78125C10.2916,3.78125,9.94184,3.92612,9.68397,4.18397C9.42612,4.44184,9.28125,4.79157,9.28125,5.15625C9.28125,5.15625,9.28125,10.6562,9.28125,10.6562C9.28125,11.0209,9.42612,11.3707,9.68397,11.6285C9.94184,11.8864,10.2916,12.0312,10.6562,12.0312C10.6562,12.0312,11.6875,12.0312,11.6875,12.0312C11.6875,12.0312,11.6875,11,11.6875,11C11.6875,10.6353,11.8324,10.2856,12.0902,10.0277C12.3481,9.76987,12.6978,9.625,13.0625,9.625C13.0625,9.625,16.5,9.625,16.5,9.625C16.8646,9.625,17.2145,9.76987,17.4723,10.0277C17.7301,10.2856,17.875,10.6353,17.875,11C17.875,11,17.875,14.4375,17.875,14.4375C17.875,14.8021,17.7301,15.1519,17.4723,15.4098C17.2145,15.6676,16.8646,15.8125,16.5,15.8125C16.5,15.8125,13.0625,15.8125,13.0625,15.8125C12.6978,15.8125,12.3481,15.6676,12.0902,15.4098C11.8324,15.1519,11.6875,14.8021,11.6875,14.4375C11.6875,14.4375,11.6875,13.4062,11.6875,13.4062C11.6875,13.4062,10.6562,13.4062,10.6562,13.4062C9.9276,13.404,9.22944,13.1135,8.71421,12.5983C8.19897,12.0831,7.90852,11.3849,7.90625,10.6562C7.90625,10.6562,7.90625,8.59375,7.90625,8.59375C7.90625,8.59375,5.5,8.59375,5.5,8.59375C5.5,8.59375,5.5,9.28125,5.5,9.28125C5.5,9.64593,5.35513,9.99566,5.09728,10.2535C4.83941,10.5114,4.48968,10.6562,4.125,10.6562C4.125,10.6562,1.375,10.6562,1.375,10.6562C1.01033,10.6562,0.660591,10.5114,0.402728,10.2535C0.144866,9.99566,3.05312e-16,9.64593,0,9.28125C0,9.28125,0,6.53125,0,6.53125C0,6.16657,0.144866,5.81684,0.402728,5.55897C0.660591,5.30112,1.01033,5.15625,1.375,5.15625C1.375,5.15625,4.125,5.15625,4.125,5.15625C4.48968,5.15625,4.83941,5.30112,5.09728,5.55897C5.35513,5.81684,5.5,6.16657,5.5,6.53125C5.5,6.53125,5.5,7.21875,5.5,7.21875C5.5,7.21875,7.90625,7.21875,7.90625,7.21875C7.90625,7.21875,7.90625,5.15625,7.90625,5.15625C7.90852,4.4276,8.19897,3.72944,8.71421,3.21421C9.22944,2.69897,9.9276,2.40852,10.6562,2.40625C10.6562,2.40625,11.6875,2.40625,11.6875,2.40625C11.6875,2.40625,11.6875,1.375,11.6875,1.375C11.6875,1.01033,11.8324,0.660591,12.0902,0.402728C12.3481,0.144866,12.6978,6.10622e-16,13.0625,0C13.0625,0,16.5,0,16.5,0C16.8646,6.10622e-16,17.2145,0.144866,17.4723,0.402728C17.7301,0.660591,17.875,1.01033,17.875,1.375C17.875,1.375,17.875,4.8125,17.875,4.8125C17.875,5.17718,17.7301,5.52691,17.4723,5.78478C17.2145,6.04263,16.8646,6.1875,16.5,6.1875C16.5,6.1875,13.0625,6.1875,13.0625,6.1875C12.6978,6.1875,12.3481,6.04263,12.0902,5.78478C11.8324,5.52691,11.6875,5.17718,11.6875,4.8125C11.6875,4.8125,11.6875,4.8125,11.6875,4.8125Z" fill="#707683" fill-opacity="1"/>
  </g>
</svg>