<svg xmlns="http://www.w3.org/2000/svg"
  xmlns:xlink="http://www.w3.org/1999/xlink" fill="none" version="1.1" width="17.921119689941406" height="18.901004791259766" viewBox="0 0 17.921119689941406 18.901004791259766">
  <g>
    <path d="M16.8,0.00100709C16.8,0.00100709,14.8534,-0.0566728,14.0766,0.701007C13.3297,1.42929,13.0211,1.98579,13.0211,3.50101C13.0211,3.50101,0,3.50101,0,3.50101C0,3.50101,1.95234,10.2412,1.95234,10.2412C1.95724,10.2515,1.96616,10.2612,1.97148,10.2713C2.29964,11.1915,3.15746,11.8543,4.18086,11.8928C4.18506,11.8946,4.2,11.901,4.2,11.901C4.2,11.901,13.3,11.901,13.3,11.901C13.3,11.901,13.3,12.1799,13.3,12.1799C13.3,12.1799,13.3011,12.6016,13.0211,13.1616C12.7411,13.7216,12.6016,14.001,11.4816,14.001C11.4816,14.001,2.38164,14.001,2.38164,14.001C0.981641,14.001,0.981641,16.101,2.38164,16.101C2.38164,16.101,4.06055,16.101,4.06055,16.101C4.06055,16.101,4.2,16.101,4.2,16.101C4.2,16.101,11.0605,16.101,11.0605,16.101C11.0605,16.101,11.2,16.101,11.2,16.101C11.2,16.101,11.3422,16.101,11.3422,16.101C13.0222,16.101,14.28,15.1204,14.7,14.1404C15.12,13.1605,15.1211,12.3221,15.1211,12.3221C15.1211,12.3221,15.1211,11.901,15.1211,11.901C15.1211,11.901,15.1211,3.50101,15.1211,3.50101C15.1211,2.76797,15.4412,2.10101,16.1,2.10101C16.1,2.10101,16.8711,2.10101,16.8711,2.10101C17.451,2.10101,17.9211,1.63089,17.9211,1.05101C17.9211,0.471127,17.451,0.00100709,16.8711,0.00100709C16.8711,0.00100709,16.8,0.00100709,16.8,0.00100709C16.8,0.00100709,16.8,0.00100709,16.8,0.00100709ZM11.2,16.101C10.36,16.101,9.8,16.661,9.8,17.501C9.8,18.341,10.36,18.901,11.2,18.901C12.04,18.901,12.6,18.341,12.6,17.501C12.6,16.661,12.04,16.101,11.2,16.101C11.2,16.101,11.2,16.101,11.2,16.101ZM4.2,16.101C3.36,16.101,2.8,16.661,2.8,17.501C2.8,18.341,3.36,18.901,4.2,18.901C5.04,18.901,5.6,18.341,5.6,17.501C5.6,16.661,5.04,16.101,4.2,16.101C4.2,16.101,4.2,16.101,4.2,16.101Z" fill="#707683" fill-opacity="1"/>
  </g>
</svg>