<svg xmlns="http://www.w3.org/2000/svg" xmlns:xlink="http://www.w3.org/1999/xlink" fill="none" version="1.1" width="14" height="15" viewBox="0 0 14 15"><g><g><path d="M11.436102975463868,10.815046345825195C11.342872975463868,10.203762345825195,10.876712975463867,9.733542345825196,10.270692975463867,9.639498745825195C9.291753975463868,9.451411345825194,8.406044975463868,10.297806345825196,8.592509775463867,11.332286345825196C8.685741975463868,11.896556345825196,9.151904975463868,12.366776345825196,9.757912975463867,12.460816345825195C10.736862975463868,12.695926345825196,11.622572975463868,11.802506345825195,11.436102975463868,10.815046345825195ZM10.410542975463867,11.379306345825196C10.317312975463867,11.473356345825195,10.177462975463868,11.567396345825195,10.037612975463867,11.567396345825195L9.944382975463867,11.567396345825195C9.711302975463868,11.520376345825195,9.571452975463867,11.379306345825196,9.524835975463867,11.144196345825195C9.478218975463868,10.909096345825196,9.571452975463867,10.768026345825195,9.618072975463868,10.721006345825195C9.711302975463868,10.626956345825196,9.851152975463867,10.532915345825195,9.991002975463868,10.532915345825195L10.084232975463866,10.532915345825195C10.317312975463867,10.579937345825195,10.457162975463866,10.721006345825195,10.503772975463868,10.956116345825196L10.503772975463868,11.003136345825196C10.550392975463867,11.191226345825195,10.503772975463868,11.285266345825196,10.410542975463867,11.379306345825196Z" fill="#5966D6" fill-opacity="1"/></g><g><path d="M13.813510534615816,10.156735723266602C13.766910534615814,9.874605723266601,13.533810534615816,9.639495723266602,13.347410534615815,9.639495723266602L13.300710534615815,9.639495723266602C12.834610534615814,9.639495723266602,12.461710534615815,9.263325723266602,12.461710534615815,8.746085723266601L12.461710534615815,8.699055723266602C12.461710534615815,8.605015723266602,12.508310534615815,8.416925723266601,12.508310534615815,8.369905723266601C12.601510534615814,8.087775723266601,12.508310534615815,7.758620723266602,12.275210534615814,7.570532723266601L11.342910534615815,7.0062696232666015L11.063210534615814,7.0062696232666015C10.923310534615815,7.0062696232666015,10.690210534615815,7.053291723266602,10.597010534615814,7.2413797232666015C10.503810534615814,7.335422723266602,10.177510534615815,7.6645767232666016,9.991000534615814,7.6645767232666016C9.757920534615815,7.6645767232666016,9.478220534615815,7.382444723266602,9.291750534615815,7.2413797232666015C9.151900534615814,7.100313723266601,9.012060534615815,7.0062696232666015,8.825590534615815,7.0062696232666015C8.732360534615815,7.0062696232666015,8.685740534615814,7.0062696232666015,8.592510534615815,7.053291723266602L7.613570534615815,7.617554723266601C7.380490534615815,7.805642723266602,7.287250534615815,8.1347957232666,7.380490534615815,8.416925723266601Q7.427100534615815,8.605015723266602,7.427100534615815,8.746085723266601C7.427100534615815,9.2163057232666,7.054170534615815,9.639495723266602,6.634620534615815,9.639495723266602L6.5413905346158145,9.639495723266602C6.308310534615814,9.639495723266602,6.1218405346158145,9.874605723266601,6.075230534615815,10.156735723266602C6.075230534615815,10.203765723266601,5.982000534615815,10.626955723266601,5.982000534615815,11.003135723266602C5.982000534615815,11.332285723266601,6.028610534615814,11.802505723266602,6.075230534615815,11.849525723266602C6.1218405346158145,12.1316657232666,6.354930534615814,12.366775723266603,6.5413905346158145,12.366775723266603L6.588010534615814,12.366775723266603C7.054170534615815,12.366775723266603,7.427100534615815,12.7899657232666,7.427100534615815,13.260185723266602C7.427100534615815,13.354235723266601,7.380490534615815,13.5423157232666,7.380490534615815,13.589345723266602C7.287250534615815,13.871475723266602,7.380490534615815,14.2006257232666,7.613570534615815,14.388715723266602L8.545890534615815,14.9529757232666C8.639120534615815,14.905955723266601,8.685740534615814,14.905955723266601,8.825590534615815,14.905955723266601C8.965440534615814,14.905955723266601,9.198520534615815,14.858935723266601,9.291750534615815,14.670845723266602C9.384990534615815,14.576805723266602,9.711300534615814,14.2006257232666,9.991000534615814,14.2006257232666C10.224110534615814,14.2006257232666,10.550410534615814,14.482755723266601,10.690210534615815,14.670845723266602C10.830110534615814,14.811915723266601,10.969910534615815,14.905955723266601,11.156410534615814,14.905955723266601C11.249610534615815,14.905955723266601,11.296210534615815,14.905955723266601,11.436110534615814,14.858935723266601L12.368410534615816,14.294675723266602C12.601510534615814,14.106585723266601,12.694710534615815,13.777425723266601,12.601510534615814,13.4952957232666Q12.554910534615814,13.307205723266602,12.554910534615814,13.166145723266602C12.554910534615814,12.648905723266601,12.927810534615814,12.272725723266602,13.394010534615814,12.272725723266602L13.440610534615814,12.272725723266602C13.673710534615815,12.272725723266602,13.860110534615815,12.037615723266601,13.906810534615815,11.755485723266602Q14.000010534615814,11.285265723266601,14.000010534615814,10.909095723266601C13.906810534615815,10.721005723266602,13.860110534615815,10.438875723266602,13.813510534615816,10.156735723266602ZM13.021010534615815,11.4263357232666C12.228610534615814,11.614415723266601,11.622610534615815,12.319745723266601,11.622610534615815,13.213165723266602C11.622610534615815,13.401255723266601,11.669210534615814,13.589345723266602,11.669210534615814,13.683385723266602L11.203010534615816,13.965515723266602C10.923310534615815,13.683385723266602,10.457210534615815,13.354235723266601,9.991000534615814,13.354235723266601C9.431600534615814,13.354235723266601,9.012060534615815,13.730405723266601,8.732360534615815,14.012535723266602L8.359430534615814,13.777425723266601L8.359430534615814,13.730405723266601C8.406040534615816,13.636365723266602,8.406040534615816,13.4952957232666,8.406040534615816,13.354235723266601C8.406040534615816,12.460815723266602,7.800030534615814,11.708465723266603,7.007550534615815,11.567395723266602L7.007550534615815,11.473355723266602L7.007550534615815,11.097175723266602C7.007550534615815,10.956115723266603,7.054170534615815,10.768025723266602,7.054170534615815,10.626955723266601C7.846650534615815,10.485895723266601,8.499280534615815,9.686515723266602,8.452660534615815,8.793105723266601C8.452660534615815,8.605015723266602,8.406040534615816,8.463945723266601,8.406040534615816,8.322885723266602L8.872210534615816,8.040755723266601C9.151900534615814,8.228835723266602,9.524840534615814,8.557995723266602,10.037610534615816,8.557995723266602C10.550410534615814,8.557995723266602,10.969910534615815,8.228835723266602,11.249610534615815,7.993725723266602L11.622610534615815,8.228835723266602L11.622610534615815,8.275865723266602C11.575910534615815,8.416925723266601,11.575910534615815,8.557995723266602,11.575910534615815,8.699055723266602C11.575910534615815,9.592475723266602,12.182010534615815,10.344825723266602,12.974410534615815,10.485895723266601C13.021010534615815,10.673985723266602,13.021010534615815,10.862065723266602,13.067710534615815,11.003135723266602C13.021010534615815,11.191225723266601,13.021010534615815,11.332285723266601,13.021010534615815,11.4263357232666ZM13.720310534615814,7.100313723266601C13.627110534615815,6.912225723266602,13.580410534615815,6.912225723266602,13.487210534615814,6.912225723266602L13.347410534615815,6.912225723266602L12.601510534615814,7.382444723266602C12.881210534615814,7.6645767232666016,12.974410534615815,7.993725723266602,12.927810534615814,8.322885723266602L13.720310534615814,7.852664723266601C13.953410534615815,7.758620723266602,13.860110534615815,7.523510723266601,13.860110534615815,7.429466723266602L13.720310534615814,7.100313723266601ZM7.473720534615815,14.811915723266601C7.147400534615815,14.576805723266602,7.007550534615815,14.2006257232666,7.054170534615815,13.871475723266602L6.914320534615815,13.965515723266602L0.5278895346158147,10.109715723266602L0.38804053461581467,10.109715723266602C0.2948085346158147,10.109715723266602,0.2481915346158147,10.109715723266602,0.1549595346158147,10.203765723266601L0.015110534615814686,10.485895723266601C0.015110534615814686,10.673985723266602,0.015110534615814686,10.815045723266602,0.1549595346158147,10.909095723266601L6.681240534615815,14.905955723266601C6.774470534615815,14.999995723266602,6.914320534615815,14.999995723266602,7.007550534615815,14.999995723266602C7.100790534615815,14.999995723266602,7.147400534615815,14.905955723266601,7.333870534615815,14.999995723266602L7.613570534615815,14.858935723266601L7.473720534615815,14.811915723266601ZM0.1549595346158147,7.852664723266601L5.655680534615815,11.238245723266601L5.655680534615815,11.097175723266602C5.655680534615815,10.768025723266602,5.702300534615815,10.438875723266602,5.748910534615814,10.297805723266602L5.748910534615814,10.203765723266601L5.748910534615814,10.156735723266602L0.5278895346158147,6.912225723266602L0.38804053461581467,6.912225723266602C0.2948085346158147,6.912225723266602,0.2481915346158147,7.0062696232666015,0.1549595346158147,7.100313723266601L0.015110534615814686,7.429466723266602L0.015110534615814686,7.711598723266602C0.061726834615814685,7.758620723266602,0.061726834615814685,7.852664723266601,0.1549595346158147,7.852664723266601Z" fill="#5966D6" fill-opacity="1"/></g><g><path d="M0.388041,5.07837L6.68124,8.74608C6.77447,8.84013,6.82109,8.84013,7.00756,8.84013L7.1474,8.84013C7.1474,8.74608,7.1474,8.65204,7.10079,8.60502C7.00756,8.32288,7.05417,7.94671,7.19402,7.66458L6.91432,7.80564L1.08729,4.42006L6.96094,0.987461L12.788,4.42006L8.91882,6.67712C9.1519,6.67712,9.4316,6.81818,9.57145,7.00627L9.61807,7.05329C9.66468,7.10031,9.80453,7.19436,9.89777,7.24138L10.3173,7.00627C10.4572,6.81818,10.6436,6.72414,10.8767,6.67712L13.5805,5.07837C13.9534,4.89028,14.0466,4.51411,13.9068,4.09091C13.8135,3.90282,13.6737,3.8558,13.5805,3.76176L7.38049,0.0940439C7.19402,0,7.05417,0,6.96094,0C6.86771,0,6.72786,0,6.63462,0.0940439L0.388041,3.76176C0.0151105,3.94984,-0.0781221,4.32602,0.0617268,4.74922C0.154959,4.9373,0.294808,4.98433,0.388041,5.07837Z" fill="#5966D6" fill-opacity="1"/></g></g></svg>