<svg xmlns="http://www.w3.org/2000/svg" xmlns:xlink="http://www.w3.org/1999/xlink" fill="none" version="1.1" width="13.4453125" height="12.833343505859375" viewBox="0 0 13.4453125 12.833343505859375"><g><g><g style="opacity:0.4000000059604645;"><path d="M9.005292072334289,1.0694580078125C9.005292072334289,1.0694580078125,10.902062072334289,1.0694580078125,10.902062072334289,1.0694580078125C11.68759207233429,1.0694580078125,12.32410207233429,1.6821690078125,12.32410207233429,2.4383280078125003C12.32410207233429,2.4383280078125003,12.32410207233429,4.264168007812501,12.32410207233429,4.264168007812501C12.32410207233429,5.0203280078125,11.68759207233429,5.6330380078125,10.902062072334289,5.6330380078125C10.902062072334289,5.6330380078125,9.005292072334289,5.6330380078125,9.005292072334289,5.6330380078125C8.21976807233429,5.6330380078125,7.5832520723342896,5.0203280078125,7.5832520723342896,4.264168007812501C7.5832520723342896,4.264168007812501,7.5832520723342896,2.4383280078125003,7.5832520723342896,2.4383280078125003C7.5832520723342896,1.6821690078125,8.21976807233429,1.0694580078125,9.005292072334289,1.0694580078125Z" fill="#FFFFFF" fill-opacity="0.8999999761581421"/></g><g><path d="M2.5424014473342895,1.0694580078125C2.5424014473342895,1.0694580078125,4.43917144733429,1.0694580078125,4.43917144733429,1.0694580078125C5.224701447334289,1.0694580078125,5.86121144733429,1.6821690078125,5.86121144733429,2.4383280078125003C5.86121144733429,2.4383280078125003,5.86121144733429,4.264168007812501,5.86121144733429,4.264168007812501C5.86121144733429,5.0203280078125,5.224701447334289,5.6330380078125,4.43917144733429,5.6330380078125C4.43917144733429,5.6330380078125,2.5424014473342895,5.6330380078125,2.5424014473342895,5.6330380078125C1.7568774473342894,5.6330380078125,1.1203614473342896,5.0203280078125,1.1203614473342896,4.264168007812501C1.1203614473342896,4.264168007812501,1.1203614473342896,2.4383280078125003,1.1203614473342896,2.4383280078125003C1.1203614473342896,1.6821690078125,1.7568774473342894,1.0694580078125,2.5424014473342895,1.0694580078125ZM2.5424014473342895,7.2003180078125C2.5424014473342895,7.2003180078125,4.43917144733429,7.2003180078125,4.43917144733429,7.2003180078125C5.224701447334289,7.2003180078125,5.86121144733429,7.8130280078125,5.86121144733429,8.5691880078125C5.86121144733429,8.5691880078125,5.86121144733429,10.3950280078125,5.86121144733429,10.3950280078125C5.86121144733429,11.1506580078125,5.224701447334289,11.7638580078125,4.43917144733429,11.7638580078125C4.43917144733429,11.7638580078125,2.5424014473342895,11.7638580078125,2.5424014473342895,11.7638580078125C1.7568774473342894,11.7638580078125,1.1203614473342896,11.1506580078125,1.1203614473342896,10.3950280078125C1.1203614473342896,10.3950280078125,1.1203614473342896,8.5691880078125,1.1203614473342896,8.5691880078125C1.1203614473342896,7.8130280078125,1.7568774473342894,7.2003180078125,2.5424014473342895,7.2003180078125ZM9.00529144733429,7.2003180078125C9.00529144733429,7.2003180078125,10.90206144733429,7.2003180078125,10.90206144733429,7.2003180078125C11.68756144733429,7.2003180078125,12.324061447334289,7.8130280078125,12.324061447334289,8.5691880078125C12.324061447334289,8.5691880078125,12.324061447334289,10.3950280078125,12.324061447334289,10.3950280078125C12.324061447334289,11.1506580078125,11.68756144733429,11.7638580078125,10.90206144733429,11.7638580078125C10.90206144733429,11.7638580078125,9.00529144733429,11.7638580078125,9.00529144733429,11.7638580078125C8.219771447334288,11.7638580078125,7.583251447334289,11.1506580078125,7.583251447334289,10.3950280078125C7.583251447334289,10.3950280078125,7.583251447334289,8.5691880078125,7.583251447334289,8.5691880078125C7.583251447334289,7.8130280078125,8.219771447334288,7.2003180078125,9.00529144733429,7.2003180078125Z" fill="#FFFFFF" fill-opacity="0.8999999761581421"/></g></g></g></svg>