<svg xmlns="http://www.w3.org/2000/svg" xmlns:xlink="http://www.w3.org/1999/xlink" fill="none" version="1.1" width="14" height="14" viewBox="0 0 14 14"><g><path d="M7.5,5.0705L7.5,0.5C7.5,0.223858,7.27614,0,7,0C6.72386,0,6.5,0.223858,6.5,0.5L6.5,5.0705C5.639,5.2935,5,6.069,5,7C5,7.931,5.639,8.7065,6.5,8.9295L6.5,13.486C6.5,13.77,6.724,14,7,14C7.276,14,7.5,13.77,7.5,13.4855L7.5,8.929C8.361,8.706,9,7.9305,9,6.9995C9,6.0685,8.361,5.2935,7.5,5.0705ZM2.4865,10.0665C2.4895,10.044,2.5,10.0235,2.5,10L2.5,0.5C2.5,0.223858,2.27614,0,2,0C1.72386,0,1.5,0.223858,1.5,0.5L1.5,10C1.5,10.0235,1.5105,10.044,1.5135,10.0665C0.625361,10.2878,0.00151566,11.0847,0,12C0,13.1046,0.89543,14,2,14C3.10457,14,4,13.1046,4,12C3.99848,11.0847,3.37464,10.2878,2.4865,10.0665ZM2,13C1.44758,12.9999,0.999861,12.5519,1,11.9995C1.00014,11.4471,1.44808,10.9994,2.0005,10.9995C2.55292,10.9996,3.00064,11.4476,3.0005,12C3.00036,12.5524,2.55242,13.0001,2,13ZM14,2C14,0.89543,13.1046,0,12,0C10.8954,0,10,0.89543,10,2C10.0015,2.91528,10.6254,3.71225,11.5135,3.9335C11.5105,3.956,11.5,3.9765,11.5,4L11.5,13.5C11.5,13.7761,11.7239,14,12,14C12.2761,14,12.5,13.7761,12.5,13.5L12.5,4C12.5,3.9765,12.4895,3.956,12.4865,3.9335C13.3746,3.71225,13.9985,2.91528,14,2ZM12,3C11.4476,2.99986,10.9999,2.55192,11,1.9995C11.0001,1.44708,11.4481,0.999361,12.0005,0.9995C12.5529,0.999639,13.0006,1.44758,13.0005,2C13.0004,2.55242,12.5524,3.00014,12,3Z" fill="#5966D6" fill-opacity="1"/></g></svg>