<svg xmlns="http://www.w3.org/2000/svg" xmlns:xlink="http://www.w3.org/1999/xlink" fill="none" version="1.1" width="17" height="17" viewBox="0 0 17 17"><g><g><path d="M1.22125,7.22952C1.17441,3.87803,3.87856,1.13602,7.23061,1.13602C10.5827,1.13602,13.2868,3.87803,13.24,7.22952L14.4507,7.22952C14.4524,3.23727,11.217,7.16672e-7,7.22533,7.16672e-7C3.2354,-0.00172763,0,3.23344,0,7.22483C0.00086374,11.2171,3.23836,14.4522,7.23002,14.4497L7.23002,13.2414C3.91277,13.2349,1.22577,10.5465,1.22125,7.22952Z" fill="#5966D6" fill-opacity="1"/></g><g><path d="M4.098214407821655,6.445157866516113L3.2386434078216553,7.304667866516113L6.090963407821656,10.153267866516114L6.162593407821655,10.081637866516115L6.234223407821656,10.153267866516114L11.221383407821655,5.167629866516114L10.364163407821655,4.308117866516113L6.160243407821655,8.508217866516112L4.098214407821655,6.445157866516113ZM16.997643407821656,13.014777866516113L16.997643407821656,11.800657866516113L15.505143407821656,11.800657866516113C15.424743407821655,11.387767866516114,15.261343407821656,10.995497866516114,15.024843407821654,10.647597866516113L16.081743407821655,9.590827866516113L15.222143407821655,8.731317866516113L14.165343407821656,9.788087866516113C13.816543407821655,9.553127866516114,13.424543407821655,9.389877866516112,13.012153407821655,9.307847866516113L13.012153407821655,7.818967866516113L11.800303407821655,7.818967866516113L11.800303407821655,9.311367866516115C11.387393407821655,9.391797866516114,10.995093407821656,9.555177866516114,10.647163407821655,9.791607866516113L9.590313407821656,8.734837866516113L8.730743407821656,9.594347866516113L9.787593407821655,10.651127866516113C9.552613407821656,10.999827866516114,9.389353407821655,11.391787866516113,9.307313407821656,11.804187866516113L7.819503407821656,11.804187866516113L7.819503407821656,13.018307866516114L9.312003407821656,13.018307866516114C9.393333407821656,13.430527866516114,9.555783407821655,13.822477866516113,9.789933407821655,14.171367866516114L8.733083407821656,15.228117866516113L9.592653407821654,16.087617866516112L10.649503407821655,15.030917866516113C10.998483407821656,15.266217866516113,11.390923407821655,15.429417866516113,11.803823407821655,15.511117866516113L11.803823407821655,17.000017866516114L13.018023407821655,17.000017866516114L13.018023407821655,15.507617866516114C13.430243407821655,15.426317866516113,13.822243407821656,15.263817866516113,14.171143407821654,15.029717866516114L15.228043407821655,16.08651786651611L16.087543407821656,15.226917866516112L15.030743407821655,14.170187866516113C15.266143407821655,13.820867866516114,15.429443407821655,13.428047866516113,15.511043407821655,13.014777866516113L17.000043407821657,13.014777866516113L16.997643407821656,13.014777866516113ZM12.408573407821656,14.349817866516114C11.335903407821656,14.349817866516114,10.466323407821655,13.480327866516113,10.466323407821655,12.407717866516114C10.466323407821655,11.335117866516114,11.335903407821656,10.465597866516113,12.408583407821656,10.465597866516113C13.481243407821655,10.465597866516113,14.350843407821655,11.335117866516114,14.350843407821655,12.407717866516114C14.349543407821656,13.479787866516114,13.480743407821656,14.348517866516113,12.408573407821656,14.349817866516114Z" fill="#5966D6" fill-opacity="1"/></g></g></svg>