<svg xmlns="http://www.w3.org/2000/svg" xmlns:xlink="http://www.w3.org/1999/xlink" fill="none" version="1.1" width="13" height="14.125" viewBox="0 0 13 14.125"><g><g><path d="M12.9921,4.15573L12.9921,4.15436C12.9921,4.14306,12.9916,4.13176,12.991,4.12047L12.991,4.11978C12.9903,4.10832,12.9895,4.09685,12.9882,4.08538L12.9877,4.08179C12.9866,4.07255,12.9853,4.06313,12.9838,4.05389C12.9834,4.05098,12.9828,4.04807,12.9824,4.04516C12.9809,4.03695,12.9794,4.02856,12.9775,4.02035C12.977,4.01812,12.9766,4.01572,12.976,4.0135C12.9737,4.0034,12.9711,3.99347,12.9684,3.98355C12.9677,3.98115,12.9669,3.97858,12.9662,3.97619C12.9639,3.96849,12.9616,3.96096,12.959,3.95343C12.958,3.95052,12.957,3.94761,12.956,3.94487C12.9531,3.93665,12.95,3.92844,12.9467,3.92039C12.9461,3.91902,12.9456,3.91748,12.945,3.91611C12.941,3.90619,12.9365,3.89626,12.9319,3.88668C12.9316,3.88616,12.9314,3.88582,12.9311,3.88531C12.9268,3.87624,12.922,3.86717,12.9173,3.85827C12.9167,3.85707,12.916,3.85604,12.9154,3.85484C12.8995,3.82637,12.8815,3.79973,12.8614,3.77526L12.8607,3.7744C12.854,3.76619,12.8471,3.75831,12.8399,3.75061L12.8396,3.75027C12.8253,3.73504,12.8102,3.72083,12.7941,3.70748L12.7901,3.70423C12.7839,3.69927,12.7775,3.6943,12.771,3.68968C12.7699,3.68883,12.7687,3.6878,12.7674,3.68694C12.7666,3.68626,12.7655,3.68575,12.7645,3.68506C12.7582,3.68061,12.7517,3.67633,12.745,3.67223C12.7433,3.6712,12.7416,3.67,12.7398,3.6688C12.7394,3.66846,12.739,3.66829,12.7385,3.66795L9.49284,1.72282L9.48938,1.72077L6.71735,0.0588973C6.58651,-0.0195117,6.43205,-0.0196387,6.30113,0.058555L0.254234,3.66812C0.253368,3.66863,0.252646,3.66914,0.25178,3.66966C0.24947,3.67103,0.247304,3.67257,0.244994,3.67394C0.238931,3.67787,0.232867,3.68181,0.226948,3.68592C0.225793,3.68677,0.224638,3.68746,0.223483,3.68814C0.222328,3.689,0.221318,3.68985,0.220163,3.69071C0.213377,3.69567,0.206736,3.70064,0.200384,3.70594C0.199374,3.7068,0.198363,3.70748,0.197352,3.70834C0.181328,3.72169,0.166169,3.73606,0.151876,3.7513C0.151443,3.75164,0.151154,3.75215,0.150721,3.75249C0.143647,3.7602,0.136862,3.7679,0.130221,3.77611L0.130076,3.77628C0.116361,3.79306,0.103801,3.81069,0.0921074,3.829C0.0918187,3.82934,0.0916743,3.82968,0.0913856,3.83003C0.0860439,3.83858,0.080991,3.84714,0.0760825,3.85604C0.075505,3.85707,0.0749275,3.85827,0.0742057,3.85929C0.0640998,3.87778,0.0550046,3.89695,0.0469199,3.91663C0.0466312,3.91714,0.0464868,3.91783,0.0461981,3.91834C0.0417226,3.92964,0.0373916,3.9411,0.0334936,3.95274C0.0333492,3.95325,0.0332049,3.95377,0.0329161,3.95428C0.0301731,3.96233,0.0277189,3.97054,0.0252646,3.97876C0.0246871,3.98064,0.0241096,3.98235,0.0236765,3.98423C0.0209335,3.99416,0.0184792,4.00409,0.0161693,4.01401C0.0153031,4.01795,0.0145813,4.02189,0.0135707,4.02582C0.0116939,4.03352,0.0103946,4.04157,0.00909525,4.04944L0.00822903,4.05475C0.00476418,4.07631,0.0023099,4.09822,0.00101058,4.1203C0.00101058,4.12132,0.000866214,4.12235,0.000866214,4.12321C0.000288738,4.13399,0,4.14494,0,4.15573L0,9.97997C0,10.1872,0.0987484,10.3769,0.2551,10.4696L6.30676,14.0638C6.30691,14.064,6.30719,14.064,6.30734,14.0641L6.31167,14.0667C6.3173,14.0701,6.32307,14.073,6.3287,14.0761L6.33607,14.0802C6.34502,14.0848,6.35411,14.089,6.36321,14.0929C6.36581,14.0939,6.36855,14.0949,6.37115,14.096C6.37779,14.0987,6.38458,14.1013,6.39136,14.1035C6.39483,14.1047,6.39829,14.1057,6.40161,14.1068C6.40768,14.1086,6.41359,14.1103,6.41966,14.1119C6.42355,14.1129,6.42745,14.1138,6.43135,14.1148C6.43698,14.116,6.44247,14.1172,6.4481,14.1182C6.45243,14.1191,6.45676,14.1198,6.46109,14.1204C6.46614,14.1211,6.47134,14.1218,6.47639,14.1223C6.48116,14.1228,6.48592,14.1235,6.49069,14.1239C6.49285,14.124,6.49516,14.124,6.49733,14.1242C6.50772,14.1246,6.51812,14.1252,6.52837,14.1249C6.54555,14.1244,6.56287,14.1227,6.58005,14.1199L6.58352,14.1194C6.59247,14.1179,6.60127,14.1162,6.61008,14.1139L6.6147,14.1129C6.62336,14.1107,6.63202,14.1083,6.64054,14.1054C6.64199,14.1049,6.64329,14.1045,6.64473,14.104C6.6544,14.1008,6.66407,14.0972,6.6736,14.0931Q6.67375,14.0931,6.67389,14.0929C6.68342,14.0888,6.69295,14.0843,6.70248,14.0794C6.70493,14.078,6.70738,14.0766,6.70998,14.0753C6.71533,14.0724,6.72081,14.0694,6.72615,14.0664L9.47884,12.423C9.7068,12.2869,9.79847,11.9576,9.6837,11.6875C9.56892,11.4175,9.29116,11.3086,9.06334,11.4447L6.98963,12.6824C6.98536,12.6849,6.98037,12.6812,6.98039,12.6756L6.98039,8.36414C6.98039,8.30989,7.00565,8.26008,7.04607,8.23458L11.8888,5.18194C11.9711,5.13008,12.0705,5.2006,12.0707,5.31116L12.076,7.58592C12.0768,7.88783,12.2835,8.13206,12.538,8.13206L12.5393,8.13206C12.7944,8.13121,13.0007,7.88526,13,7.58284L12.9921,4.15573ZM6.45965,7.29069L4.65908,6.16418C4.57231,6.10992,4.57072,5.96307,4.65648,5.90625L9.23615,2.86919C9.27212,2.84534,9.31573,2.84425,9.35251,2.86628L11.3135,4.04174C11.403,4.09548,11.4043,4.24644,11.3158,4.3024L6.57558,7.29052C6.53934,7.31333,6.49593,7.31339,6.45965,7.29069ZM6.56417,1.19448L8.09203,2.11048C8.18053,2.16353,8.18312,2.31226,8.09665,2.3696L3.54253,5.38972C3.50591,5.41404,3.46139,5.41469,3.42429,5.39143L1.68248,4.30155C1.59355,4.24592,1.5947,4.09428,1.68464,4.04054L6.45257,1.19431C6.48771,1.17348,6.52908,1.17355,6.56417,1.19448ZM1.10558,5.17938L5.99045,8.23578C6.03108,8.2612,6.05648,8.31122,6.05642,8.36568L6.05642,12.4524C6.05642,12.5616,5.95941,12.6326,5.87712,12.5837L0.992248,9.68269C0.95032,9.65781,0.923833,9.607,0.923817,9.55142L0.923817,5.30911C0.923962,5.19854,1.02314,5.12769,1.10558,5.17938Z" fill="#5966D6" fill-opacity="1"/></g><g><path d="M12.687450577697753,10.705330390625L12.683120577697753,10.705330390625C12.523740577697755,10.702590390625,12.396260577697754,10.547010390625,12.398570577697754,10.358060390624999L12.408390577697753,9.563752390625L9.738716577697755,9.563752390625L9.738716577697755,10.363020390625C9.738716577697755,10.552150390625,9.609506577697754,10.705330390625,9.449978577697754,10.705330390625C9.290450577697754,10.705330390625,9.161240577697754,10.552150390625,9.161240577697754,10.363020390625L9.161240577697754,9.221451390625C9.161240577697754,9.032330390625,9.290450577697754,8.879150390625,9.449978577697754,8.879150390625L12.701460577697754,8.879150390625C12.778840577697753,8.879150390625,12.852900577697755,8.915947690625,12.907180577697755,8.981156390625C12.961470577697753,9.046364390625,12.991350577697753,9.134849390625,12.990200577697754,9.226414390625L12.976050577697753,10.367990390625C12.973740577697754,10.555400390625,12.844820577697753,10.705330390625,12.687450577697753,10.705330390625Z" fill="#5966D6" fill-opacity="1"/></g><g><path d="M12.451402882080078,12.582146303710937C12.392202882080078,12.380536303710937,12.224162882080078,12.282466303710937,12.076042882080078,12.363076303710937L11.416122882080078,12.722496303710937L11.416122882080078,10.593725303710938C11.416122882080078,10.376535303710938,11.286912882080077,10.235336303710938,11.127392882080079,10.235336303710938C10.967862882080079,10.235336303710938,10.838652882080078,10.377562303710938,10.838652882080078,10.594752303710937L10.838652882080078,12.722326303710938L10.178739882080079,12.362906303710938C10.030617882080078,12.282296303710938,9.862572082080078,12.380366303710938,9.803380782080078,12.581976303710938C9.744189482080078,12.783596303710937,9.816229682080078,13.012426303710937,9.964207882080078,13.093036303710937L11.020122882080077,13.667926303710937C11.020552882080079,13.668096303710938,11.020842882080078,13.668276303710938,11.021282882080078,13.668446303710937C11.029072882080078,13.672726303710938,11.037012882080077,13.676316303710937,11.045102882080078,13.679566303710939C11.047552882080078,13.680596303710939,11.049862882080077,13.681276303710938,11.052312882080079,13.682136303710937C11.057802882080079,13.684186303710938,11.063292882080079,13.686076303710937,11.068922882080077,13.687616303710938C11.072382882080078,13.688636303710938,11.075702882080078,13.689496303710937,11.079172882080078,13.690176303710938C11.083792882080079,13.691206303710938,11.088412882080078,13.692066303710938,11.093172882080077,13.692916303710938C11.096782882080078,13.693426303710938,11.100392882080078,13.694116303710938,11.104002882080078,13.694626303710937C11.109202882080078,13.695146303710938,11.114542882080078,13.695486303710938,11.119882882080079,13.695656303710937C11.122332882080078,13.695826303710938,11.124932882080078,13.696166303710937,11.127392882080079,13.696166303710937C11.136052882080078,13.696166303710937,11.144572882080078,13.695486303710938,11.153082882080078,13.694456303710938C11.154822882080078,13.694286303710937,11.156552882080078,13.693946303710938,11.158282882080078,13.693606303710938C11.164922882080077,13.692576303710938,11.171562882080078,13.691376303710937,11.178062882080077,13.689836303710937C11.180372882080079,13.689326303710939,11.182682882080078,13.688636303710938,11.184992882080078,13.688126303710938C11.191632882080079,13.686246303710938,11.198132882080078,13.684186303710938,11.204622882080079,13.681616303710937C11.206362882080079,13.680936303710938,11.208092882080077,13.680426303710938,11.209822882080077,13.679736303710937C11.217762882080079,13.676486303710938,11.225702882080078,13.672896303710937,11.233352882080078,13.668616303710937C11.233792882080078,13.668276303710938,11.234362882080077,13.668096303710938,11.234942882080079,13.667926303710937L12.290862882080077,13.093036303710937C12.438552882080078,13.012596303710938,12.51059288208008,12.783766303710937,12.451402882080078,12.582146303710937Z" fill="#5966D6" fill-opacity="1"/></g></g></svg>