<svg xmlns="http://www.w3.org/2000/svg" xmlns:xlink="http://www.w3.org/1999/xlink" fill="none" version="1.1" width="15" height="14" viewBox="0 0 15 14"><g><path d="M10.4989,4.78298C10.4426,4.40349,10.2733,4.23699,9.92095,4.20534C9.75316,4.19027,9.58222,4.19107,9.41435,4.20634C8.28219,4.30938,7.48037,2.7684,8.13462,1.78058C8.23871,1.62344,8.32456,1.44939,8.40108,1.27396C8.46452,1.12847,8.52069,0.968743,8.43843,0.806932C8.19752,0.333065,7.78965,0.108384,7.33194,0.017078C6.93164,-0.0627835,6.80587,0.320618,6.64488,0.616255C6.5638,0.765148,6.48631,0.917645,6.39258,1.05685C6.22313,1.30854,6.00083,1.47909,5.71837,1.56137C4.93269,1.79025,4.33418,1.49479,3.91267,0.660127C3.52987,-0.0978726,3.26693,-0.173271,2.58663,0.28168C2.51045,0.332614,2.43503,0.386005,2.36441,0.445497C2.0394,0.71927,1.98572,0.986718,2.17958,1.37939C2.29246,1.60807,2.43015,1.82415,2.52566,2.06072C2.88419,2.94868,2.28378,4.07808,1.39967,4.17919C1.14369,4.20847,0.883423,4.1907,0.625486,4.20331C0.380613,4.21529,0.169146,4.30819,0.0884996,4.58413C-0.0288985,4.9859,-0.0290302,5.39657,0.0853226,5.7989C0.14922,6.02371,0.302222,6.16063,0.525439,6.17522C0.663985,6.18429,0.803434,6.1769,0.94247,6.1769C1.42584,6.16533,1.87226,6.24428,2.21563,6.6723C2.72233,7.30387,2.76948,7.92595,2.35365,8.69931C1.91,9.52439,1.98853,9.80349,2.78773,10.2314C2.87645,10.2789,2.96926,10.3182,3.06225,10.3551C3.32288,10.4585,3.53628,10.3727,3.68934,10.1343C3.80854,9.94859,3.91515,9.75098,4.00851,9.54834C4.48731,8.50912,6.04129,8.50861,6.52303,9.54183C6.61728,9.74398,6.71974,9.94499,6.84266,10.1271C7.04862,10.4323,7.27099,10.4859,7.63253,10.2872C8.00472,10.0827,8.45679,9.93301,8.46503,9.3488C8.46728,9.18945,8.37254,9.04367,8.29669,8.90276C8.20123,8.72543,8.09721,8.55166,8.01971,8.36512C7.65614,7.4901,8.2066,6.3843,9.07618,6.21885C9.35423,6.16595,9.63232,6.20818,9.90967,6.18716C10.2658,6.16015,10.4358,6.00651,10.4973,5.62471C10.5421,5.34645,10.5402,5.06158,10.4989,4.78298ZM5.28951,7.476C4.11714,7.48154,3.1761,6.47188,3.1732,5.20538C3.17029,3.93414,4.10406,2.92121,5.27627,2.92399C6.43486,2.92675,7.35758,3.93031,7.36049,5.19082C7.3634,6.44959,6.43813,7.47055,5.28951,7.476ZM14.9964,9.29218C14.9803,9.10729,14.9295,8.93146,14.854,8.76535C14.7481,8.53203,14.5877,8.43071,14.3428,8.50396C14.1332,8.56669,13.9307,8.66976,13.7195,8.65865C13.052,8.67367,12.5895,7.94397,12.7766,7.19295C12.917,6.62923,12.829,6.44873,12.3466,6.31071C11.8586,6.17109,11.6782,6.29228,11.5683,6.83328C11.5597,6.87557,11.551,6.91783,11.5412,6.95981C11.3425,7.81669,10.4575,8.10269,9.85672,7.504C9.76144,7.40907,9.66914,7.31056,9.57282,7.21696C9.43715,7.08512,9.28852,7.0826,9.13035,7.16801C8.56475,7.47342,8.48311,7.97363,8.93131,8.43554C9.19064,8.70281,9.35186,8.99848,9.29674,9.41012C9.22209,9.96771,8.92041,10.2584,8.43504,10.3916C7.94485,10.5261,7.85865,10.7182,8.00184,11.242C8.14421,11.7628,8.31684,11.8717,8.7937,11.7003C9.20103,11.554,9.5622,11.5599,9.89903,11.903C10.2546,12.2651,10.2794,12.6827,10.1591,13.1532C10.1123,13.3365,10.0211,13.547,10.1752,13.7074C10.4096,13.9513,10.71,14.0317,11.0276,13.9892C11.3103,13.9513,11.3249,13.6821,11.378,13.4534C11.395,13.3799,11.4101,13.3057,11.4305,13.2333C11.6509,12.4536,12.4961,12.1907,13.0605,12.7274C13.1652,12.827,13.2587,12.9407,13.3645,13.0388C13.497,13.1615,13.6446,13.1878,13.8079,13.1029C14.3859,12.8021,14.4672,12.2889,14.0093,11.8169C13.9949,11.8021,13.9798,11.7879,13.9656,11.7728C13.3831,11.1516,13.6057,10.1724,14.3865,9.92112C14.4817,9.89047,14.5763,9.85712,14.6724,9.83C14.9306,9.7571,15.0199,9.56339,14.9964,9.29218ZM11.4785,11.7018C10.6978,11.7175,10.0346,10.9997,10.033,10.137C10.0313,9.27297,10.6675,8.57746,11.4734,8.56227C12.25,8.54763,12.914,9.26739,12.9204,10.1307C12.9267,10.9884,12.287,11.6855,11.4785,11.7018Z" fill="#5966D6" fill-opacity="1"/></g></svg>