<svg xmlns="http://www.w3.org/2000/svg" xmlns:xlink="http://www.w3.org/1999/xlink" fill="none" version="1.1" width="16" height="16" viewBox="0 0 16 16"><defs><clipPath id="master_svg0_712_14232"><rect x="0" y="0" width="16" height="16" rx="0"/></clipPath></defs><g clip-path="url(#master_svg0_712_14232)"><g><path d="M8,2.1875C4.79063,2.1875,2.1875,4.79063,2.1875,8C2.1875,11.20937,4.79063,13.8125,8,13.8125C11.20937,13.8125,13.8125,11.20937,13.8125,8C13.8125,4.79063,11.20937,2.1875,8,2.1875C8,2.1875,8,2.1875,8,2.1875ZM11.0219,5.71406C11.0219,5.71406,7.73125,10.27657,7.73125,10.27657C7.68526,10.34077,7.62463,10.39303,7.55439,10.42917C7.48415,10.46523,7.40631,10.48403,7.32735,10.48403C7.24837,10.48403,7.17055,10.46523,7.1003,10.42917C7.03006,10.39303,6.96943,10.34077,6.92344,10.27657C6.92344,10.27657,4.97656,7.57656,4.97656,7.57656C4.91719,7.49375,4.97656,7.37813,5.07813,7.37813C5.07813,7.37813,5.81094,7.37813,5.81094,7.37813C5.97187,7.37813,6.1218699999999995,7.45625,6.21563,7.58594C6.21563,7.58594,7.32813,9.1297,7.32813,9.1297C7.32813,9.1297,9.78437,5.72344,9.78437,5.72344C9.8781,5.59219,10.0297,5.51563,10.18903,5.51563C10.18903,5.51563,10.9219,5.51563,10.9219,5.51563C11.02343,5.51563,11.08283,5.63125,11.0219,5.71406C11.0219,5.71406,11.0219,5.71406,11.0219,5.71406C11.0219,5.71406,11.0219,5.71406,11.0219,5.71406Z" fill="#E8FFEA" fill-opacity="1"/></g><g><path d="M10.922094999999999,5.515625C10.922094999999999,5.515625,10.189275,5.515625,10.189275,5.515625C10.029905,5.515625,9.878335,5.592187,9.784595,5.723437C9.784595,5.723437,7.328335,9.129685,7.328335,9.129685C7.328335,9.129685,6.215825,7.585935,6.215825,7.585935C6.122075,7.4562550000000005,5.972075,7.378125,5.811138,7.378125C5.811138,7.378125,5.078323,7.378125,5.078323,7.378125C4.9767605,7.378125,4.9173853,7.493755,4.9767605,7.576565C4.9767605,7.576565,6.9236450000000005,10.276565,6.9236450000000005,10.276565C6.969635,10.340755,7.030265,10.393055,7.100505,10.429145C7.170755,10.465235,7.248575000000001,10.484055,7.327555,10.484055C7.406515000000001,10.484055,7.484355,10.465235,7.554595,10.429145C7.624835,10.393055,7.685465000000001,10.340755,7.731455,10.276565C7.731455,10.276565,11.022095,5.714063,11.022095,5.714063C11.083034999999999,5.63125,11.023655,5.515625,10.922094999999999,5.515625C10.922094999999999,5.515625,10.922094999999999,5.515625,10.922094999999999,5.515625C10.922094999999999,5.515625,10.922094999999999,5.515625,10.922094999999999,5.515625Z" fill="#00B42A" fill-opacity="1"/></g></g></svg>