<svg xmlns="http://www.w3.org/2000/svg" xmlns:xlink="http://www.w3.org/1999/xlink" fill="none" version="1.1" width="16" height="16" viewBox="0 0 16 16"><defs><clipPath id="master_svg0_712_14233"><rect x="0" y="0" width="16" height="16" rx="0"/></clipPath></defs><g clip-path="url(#master_svg0_712_14233)"><g><path d="M8,2.1875C4.79063,2.1875,2.1875,4.79063,2.1875,8C2.1875,11.20937,4.79063,13.8125,8,13.8125C11.20937,13.8125,13.8125,11.20937,13.8125,8C13.8125,4.79063,11.20937,2.1875,8,2.1875C8,2.1875,8,2.1875,8,2.1875ZM10.68437,10.42343C10.7031,10.4469,10.71403,10.47497,10.71403,10.5047C10.71403,10.57497,10.65783,10.6297,10.58903,10.6297C10.58903,10.6297,9.55783,10.62497,9.55783,10.62497C9.55783,10.62497,8.00625,8.775,8.00625,8.775C8.00625,8.775,6.45469,10.62657,6.45469,10.62657C6.45469,10.62657,5.42187,10.63123,5.42187,10.63123C5.35313,10.63123,5.29687,10.57503,5.29687,10.50623C5.29687,10.47657,5.30781,10.44843,5.326560000000001,10.42503C5.326560000000001,10.42503,7.35937,8.00469,7.35937,8.00469C7.35937,8.00469,5.326560000000001,5.58281,5.326560000000001,5.58281C5.3076799999999995,5.55991,5.29721,5.53124,5.29687,5.50156C5.29687,5.43125,5.35313,5.37656,5.42187,5.37656C5.42187,5.37656,6.45469,5.38125,6.45469,5.38125C6.45469,5.38125,8.00625,7.23125,8.00625,7.23125C8.00625,7.23125,9.559370000000001,5.37969,9.559370000000001,5.37969C9.559370000000001,5.37969,10.59063,5.375,10.59063,5.375C10.65937,5.375,10.71563,5.43125,10.71563,5.5C10.71563,5.52969,10.70623,5.5593699999999995,10.6875,5.58125C10.6875,5.58125,8.65469,8.003129999999999,8.65469,8.003129999999999C8.65469,8.003129999999999,10.68437,10.42343,10.68437,10.42343C10.68437,10.42343,10.68437,10.42343,10.68437,10.42343C10.68437,10.42343,10.68437,10.42343,10.68437,10.42343Z" fill="#FFDEDE" fill-opacity="1"/></g><g><path d="M10.715625,5.5C10.715625,5.43125,10.659375,5.375,10.590625,5.375C10.590625,5.375,9.559375,5.37968731,9.559375,5.37968731C9.559375,5.37968731,8.006245,7.23125,8.006245,7.23125C8.006245,7.23125,6.454685,5.38124991,6.454685,5.38124991C6.454685,5.38124991,5.421875,5.37656259,5.421875,5.37656259C5.353125,5.37656259,5.296875,5.4312501,5.296875,5.501563C5.296875,5.53125,5.3078124,5.559375,5.3265624,5.582812C5.3265624,5.582812,7.359375,8.00469,7.359375,8.00469C7.359375,8.00469,5.3265624,10.425,5.3265624,10.425C5.3076817,10.4479,5.297205675,10.476569999999999,5.296875,10.50625C5.296874999999998,10.575,5.353125,10.63125,5.421875,10.63125C5.421875,10.63125,6.454685,10.62656,6.454685,10.62656C6.454685,10.62656,8.006245,8.775,8.006245,8.775C8.006245,8.775,9.557815,10.625,9.557815,10.625C9.557815,10.625,10.589065,10.62969,10.589065,10.62969C10.657815,10.62969,10.714065,10.575,10.714065,10.50469C10.714065,10.475,10.703125,10.44687,10.684375,10.42344C10.684375,10.42344,8.654685,8.00313,8.654685,8.00313C8.654685,8.00313,10.687505,5.58125,10.687505,5.58125C10.706245,5.559375,10.715625,5.529687,10.715625,5.5C10.715625,5.5,10.715625,5.5,10.715625,5.5C10.715625,5.5,10.715625,5.5,10.715625,5.5Z" fill="#FF0000" fill-opacity="1"/></g></g></svg>