<svg xmlns="http://www.w3.org/2000/svg" xmlns:xlink="http://www.w3.org/1999/xlink" fill="none" version="1.1" width="132" height="105" viewBox="0 0 132 105"><defs><filter id="master_svg0_712_13083" filterUnits="objectBoundingBox" color-interpolation-filters="sRGB" x="-20" y="-15" width="132" height="105"><feFlood flood-opacity="0" result="BackgroundImageFix"/><feColorMatrix in="SourceAlpha" type="matrix" values="0 0 0 0 0 0 0 0 0 0 0 0 0 0 0 0 0 0 127 0"/><feOffset dy="5" dx="0"/><feGaussianBlur stdDeviation="5"/><feColorMatrix type="matrix" values="0 0 0 0 0.23441269993782043 0 0 0 0 0.32273438572883606 0 0 0 0 0.8968254923820496 0 0 0 0.800000011920929 0"/><feBlend mode="normal" in2="BackgroundImageFix" result="effect1_dropShadow"/><feBlend mode="normal" in="SourceGraphic" in2="effect1_dropShadow" result="shape"/></filter></defs><g filter="url(#master_svg0_712_13083)"><path d="M33.82,56.36L36.019999999999996,56.36L36.019999999999996,71L33.26,71L33.26,61.56L29.54,67.1L28.02,67.1L24.28,61.52L24.28,71L21.54,71L21.54,56.36L23.84,56.36L28.84,63.94L33.82,56.36ZM44.54,62.36L47.86,56.36L51,56.36L45.9,65.24000000000001L45.9,71L43,71L43,65.22L37.68,56.36L41.1,56.36L44.54,62.36ZM52.66,56.36L62.2,56.36L62.2,58.9L55.56,58.9L55.56,62.64L61.5,62.64L61.5,65.16L55.56,65.16L55.56,71L52.66,71L52.66,56.36ZM64.24000000000001,56.36L67.14,56.36L67.14,68.4L73.8,68.4L73.8,71L64.24000000000001,71L64.24000000000001,56.36ZM75.14,63.66Q75.14,61.36,76.06,59.64Q76.97999999999999,57.92,78.57,57.01Q80.16,56.1,82.12,56.1Q84.08,56.1,85.67,57.01Q87.26,57.92,88.19,59.64Q89.12,61.36,89.12,63.66Q89.12,65.97999999999999,88.19,67.7Q87.26,69.42,85.67,70.33Q84.08,71.24000000000001,82.12,71.24000000000001Q80.16,71.24000000000001,78.57,70.33Q76.97999999999999,69.42,76.06,67.7Q75.14,65.97999999999999,75.14,63.66ZM78.2,63.66Q78.2,65.12,78.69,66.24000000000001Q79.18,67.36,80.07,67.97Q80.96000000000001,68.58,82.12,68.58Q83.28,68.58,84.17,67.97Q85.06,67.36,85.55,66.24000000000001Q86.04,65.12,86.04,63.66Q86.04,62.2,85.55,61.09Q85.06,59.98,84.17,59.37Q83.28,58.76,82.12,58.76Q80.96000000000001,58.76,80.07,59.37Q79.18,59.98,78.69,61.09Q78.2,62.2,78.2,63.66ZM101.3,56.36L104.34,66.2L107.14,56.36L109.94,56.36L105.38,71L103.14,71L100.06,61.44L97.08,71L94.86,71L90.1,56.36L93.1,56.36L96.1,66.2L98.98,56.36L101.3,56.36Z" fill="#000000" fill-opacity="1"/></g></svg>