<svg xmlns="http://www.w3.org/2000/svg" xmlns:xlink="http://www.w3.org/1999/xlink" fill="none" version="1.1" width="60" height="60" viewBox="0 0 60 60">
	<defs>
		<linearGradient x1="1.040097951889038" y1="0.025375785306096077" x2="0.2551981508731842" y2="1.0013662576675415" id="master_svg0_42_4404">
			<stop offset="8.571428805589676%" stop-color="#D4D9E5" stop-opacity="1" />
			<stop offset="97.14285731315613%" stop-color="#DADFEC" stop-opacity="1" />
		</linearGradient>
		<linearGradient x1="0.5" y1="0" x2="0.5" y2="1" id="master_svg1_42_4156">
			<stop offset="0.714285671710968%" stop-color="#B8BCC5" stop-opacity="1" />
			<stop offset="29.892414808273315%" stop-color="#CBCFDA" stop-opacity="1" />
			<stop offset="99.99998211860657%" stop-color="#C3C8D4" stop-opacity="1" />
		</linearGradient>
	</defs>
	<g>
		<rect x="0" y="0" width="60" height="60" rx="0" fill="none" fill-opacity="1" />
		<g>
			<ellipse cx="30" cy="30" rx="29.5" ry="29.5" fill-opacity="0" stroke-opacity="1" stroke="#D9DFEC" fill="none" stroke-width="1" />
		</g>
		<g>
			<path
				d="M15.25116234375,36.2817658203125Q14.78061234375,39.7101658203125,14.78061234375,44.459965820312505L23.83169234375,44.459965820312505Q23.83169234375,36.1502658203125,25.527192343750002,32.6047858203125Q26.30546234375,30.977315820312498,27.48230234375,30.2367458203125Q28.86678234375,29.3655058203125,31.253552343750002,29.3655058203125L34.86025234375,29.3655058203125L37.46215234375,29.3655058203125Q37.90785234375,29.3655058203125,38.34505234375,29.2785458203125Q38.78215234375,29.1915858203125,39.19395234375,29.0210158203125Q39.60575234375,28.8504458203125,39.97635234375,28.6028158203125Q40.346952343750004,28.3551858203125,40.66215234375,28.0400058203125Q40.97735234375,27.7248258203125,41.224952343750005,27.3542258203125Q41.47265234375,26.9836158203125,41.64315234375,26.5718158203125Q41.81375234375,26.1600158203125,41.90075234375,25.7228548203125Q41.98765234375,25.2856928203125,41.98765234375,24.8399658203125Q41.98765234375,24.7288698203125,41.982252343750005,24.6179088203125Q41.97675234375,24.5069468203125,41.96585234375,24.3963858203125Q41.95495234375,24.2858258203125,41.93865234375,24.1759318203125Q41.92235234375,24.0660388203125,41.90075234375,23.9570778203125Q41.879052343750004,23.8481168203125,41.85205234375,23.7403558203125Q41.82505234375,23.6325858203125,41.792752343749996,23.5262758203125Q41.76055234375,23.4199658203125,41.72315234375,23.3153558203125Q41.68565234375,23.2107558203125,41.64315234375,23.1081158203125Q41.60065234375,23.0054758203125,41.55315234375,22.9050558203125Q41.50565234375,22.8046258203125,41.453252343749995,22.7066458203125Q41.40095234375,22.6086658203125,41.34385234375,22.5133758203125Q41.28665234375,22.4180858203125,41.224952343750005,22.3257158203125Q41.16325234375,22.2333458203125,41.09705234375,22.1441058203125Q41.03085234375,22.0548758203125,40.96045234375,21.9689958203125Q40.88995234375,21.8831158203125,40.81535234375,21.8008058203125Q40.74075234375,21.7184858203125,40.66215234375,21.6399258203125Q40.58365234375,21.5613758203125,40.50125234375,21.4867658203125Q40.41895234375,21.4121558203125,40.33305234375,21.3416758203125Q40.24725234375,21.2712058203125,40.15795234375,21.2050258203125Q40.06875234375,21.1388458203125,39.97635234375,21.0771258203125Q39.88405234375,21.0153958203125,39.788752343750005,20.9582858203125Q39.693452343749996,20.9011758203125,39.59545234375,20.8488058203125Q39.49745234375,20.7964358203125,39.397052343750005,20.7489358203125Q39.29665234375,20.7014358203125,39.19395234375,20.6589158203125Q39.09135234375,20.6164058203125,38.98675234375,20.5789758203125Q38.88215234375,20.5415458203125,38.77585234375,20.509295820312502Q38.66955234375,20.4770458203125,38.56175234375,20.4500558203125Q38.453952343750004,20.4230658203125,38.34505234375,20.4013858203125Q38.23605234375,20.379715820312498,38.12615234375,20.3634158203125Q38.01625234375,20.3471158203125,37.905752343749995,20.3362258203125Q37.795152343750004,20.3253358203125,37.68415234375,20.3198858203125Q37.57325234375,20.3144258203125,37.46215234375,20.3144258203125L34.86035234375,20.3144258203125L31.253552343750002,20.3144258203125Q26.25588234375,20.3144258203125,22.66163234375,22.5762558203125Q19.26931014375,24.7110138203125,17.36174234375,28.699995820312502Q15.86101234375,31.838225820312502,15.25116234375,36.2817658203125Z"
				fill-rule="evenodd" fill="url(#master_svg0_42_4404)" fill-opacity="1" />
		</g>
		<g>
			<path
				d="M14.62072,38.4401Q14.780619999999999,42.769999999999996,14.780619999999999,45L23.831690000000002,45Q23.831690000000002,42.602900000000005,23.66562,38.1061Q23.466169999999998,32.7054,23.57068,30.4529Q23.71968,27.241410000000002,24.421210000000002,25.53703Q24.99557,24.14163,26.14721,23.49942Q27.89363,22.52554,31.4114,22.52554L40,22.52554Q40.1111,22.52554,40.2221,22.52008Q40.333,22.51463,40.4436,22.50374Q40.5541,22.49286,40.664,22.47655Q40.7739,22.460250000000002,40.8829,22.43858Q40.9918,22.41691,41.099599999999995,22.38991Q41.2074,22.36292,41.3137,22.330669999999998Q41.42,22.29842,41.5246,22.26099Q41.6292,22.22356,41.7318,22.18105Q41.8345,22.13854,41.9349,22.09104Q42.0353,22.04354,42.1333,21.99117Q42.231300000000005,21.9388,42.3266,21.88168Q42.4219,21.82457,42.5142,21.76285Q42.6066,21.70112,42.6959,21.63494Q42.7851,21.56876,42.870999999999995,21.49829Q42.9568,21.42781,43.0392,21.3532Q43.1215,21.27859,43.2,21.20004Q43.2786,21.12148,43.3532,21.03916Q43.427800000000005,20.95685,43.4983,20.87097Q43.568799999999996,20.78509,43.6349,20.69586Q43.7011,20.60663,43.7628,20.51425Q43.824600000000004,20.42188,43.881699999999995,20.32659Q43.9388,20.2313,43.9912,20.13332Q44.0435,20.03535,44.091,19.934919999999998Q44.1385,19.83449,44.181,19.73185Q44.223600000000005,19.62921,44.260999999999996,19.52461Q44.2984,19.42001,44.3307,19.31369Q44.362899999999996,19.20738,44.3899,19.09962Q44.4169,18.991849,44.4386,18.882888Q44.4602,18.773927,44.476600000000005,18.664034Q44.4929,18.554141,44.503699999999995,18.44358Q44.5146,18.333019,44.5201,18.222058Q44.5255,18.111096,44.5255,18Q44.5255,17.888904,44.5201,17.777942Q44.5146,17.666981,44.503699999999995,17.55642Q44.4929,17.445859,44.476600000000005,17.335966Q44.4602,17.226073,44.4386,17.117112Q44.4169,17.008151,44.3899,16.90038Q44.362899999999996,16.79262,44.3307,16.68631Q44.2984,16.57999,44.260999999999996,16.47539Q44.223600000000005,16.37079,44.181,16.26815Q44.1385,16.16551,44.091,16.065080000000002Q44.0435,15.964649999999999,43.9912,15.86668Q43.9388,15.768699999999999,43.881699999999995,15.67341Q43.824600000000004,15.57812,43.7628,15.48575Q43.7011,15.39337,43.6349,15.30414Q43.568799999999996,15.21491,43.4983,15.12903Q43.427800000000005,15.04315,43.3532,14.960840000000001Q43.2786,14.87852,43.2,14.79996Q43.1215,14.72141,43.0392,14.646799999999999Q42.9568,14.572189999999999,42.870999999999995,14.50171Q42.7851,14.431239999999999,42.6959,14.36506Q42.6066,14.29888,42.5142,14.23715Q42.4219,14.17543,42.3266,14.11832Q42.231300000000005,14.0612,42.1333,14.00883Q42.0353,13.95646,41.9349,13.90896Q41.8345,13.861460000000001,41.7318,13.818950000000001Q41.6292,13.776440000000001,41.5246,13.73901Q41.42,13.70158,41.3137,13.66933Q41.2074,13.637080000000001,41.099599999999995,13.61009Q40.9918,13.58309,40.8829,13.56142Q40.7739,13.53975,40.664,13.52345Q40.5541,13.50714,40.4436,13.49626Q40.333,13.48537,40.2221,13.47992Q40.1111,13.47446,40,13.47446L31.4114,13.47446Q19.598447,13.47447,16.05142,22.09197Q14.75123,25.250790000000002,14.52933,30.0334Q14.407350000000001,32.6626,14.62072,38.4401Z"
				fill-rule="evenodd" fill="url(#master_svg1_42_4156)" fill-opacity="1" />
		</g>
	</g>
</svg>
